<svg id="Layer_1" data-name="Layer 1" xmlns="http://www.w3.org/2000/svg" viewBox="0 0 489.63 199.34">
  <defs>
    <style>
      .cls-1, .cls-2 {
        isolation: isolate;
        font-size: 179.06px;
        font-family: Belista;
      }

      .cls-1 {
        fill: #e6e6e6;
      }
    </style>
  </defs>
  <title>name</title>
  <g>
    <text class="cls-1" transform="translate(0 156.15)">PasTel</text>
    <text class="cls-2" transform="translate(8.96 155.1)">PasTel</text>
    <g>
      <path d="M182,190h1v8h11v-8h1v18h-1v-9H183v10h-1Z" transform="translate(-12.45 -11.39)"/>
      <path d="M202.78,202l-2.58,7h-1.08l7-19h1.81l7.24,19H214l-2.64-7Zm7.78-1c-2.12-5.64-3.2-8.36-3.62-9.62h0c-.47,1.43-1.68,4.79-3.4,9.62Z" transform="translate(-12.45 -11.39)"/>
      <path d="M218,209V190h2.67s9.91,14.82,11.1,16.88h0a49.54,49.54,0,0,1,.23-8.62V190h1v19h-1.84s-9.88-15.79-11.23-17.89h0c.12,2.5.11,5.27.07,8.72V209Z" transform="translate(-12.45 -11.39)"/>
      <path d="M239,190h6.3c5.21,0,8.81,3.62,8.81,9.34s-3.53,9.66-8.85,9.66H239Zm1,17h4.5c4.94,0,7.38-3.56,7.38-8.07,0-4.11-2.21-7.93-7.38-7.93H240Z" transform="translate(-12.45 -11.39)"/>
      <path d="M269,191h-6v-1h14v1h-7v18h-1Z" transform="translate(-12.45 -11.39)"/>
      <path d="M280,190h1v8h11v-8h2v18h-2v-9H281v10h-1Z" transform="translate(-12.45 -11.39)"/>
      <path d="M301,200v9h-1V190h6.7c3.7,0,5.66,2,5.66,5a4.28,4.28,0,0,1-3.57,4.46c1.93.47,3.21,1.81,3.21,5v.73a12.45,12.45,0,0,0,.25,3.85h-2a13.59,13.59,0,0,1-.27-4v-.5c0-3.16-.91-4.48-4.47-4.48Zm0-2h4.37c3.16,0,4.64-1.19,4.64-3.56s-1.44-3.44-4.26-3.44H301Z" transform="translate(-12.45 -11.39)"/>
      <path d="M332.57,199c0,5.17-2.77,9.89-8.63,9.89-5.42,0-8.46-4.31-8.46-9.77s3-9.76,8.64-9.76C329.33,189.38,332.57,193.48,332.57,199ZM317,199c0,4.35,2.41,8.48,7,8.48,4.92,0,7-4,7-8.52s-2.33-8.3-6.92-8.3c-4.89,0-7,4.1-7,8.39Z" transform="translate(-12.45 -11.39)"/>
      <path d="M340.06,209l-5.27-19h1.52c1.27,4.56,4.14,15.07,4.58,17.3h0c.34-1.81,3.47-12.27,4.79-17.3h1.63c1.25,4.65,4.29,15.8,4.6,17.26h0c.6-2.68,3.78-12.66,5.08-17.26h1.49l-5.81,19H351c-1.25-4.47-4.2-15.47-4.53-17.1h0c-.49,2.48-3.42,12.38-4.78,17.1Z" transform="translate(-12.45 -11.39)"/>
      <path d="M362,209V190h2.11s9.92,14.82,11.11,16.88h0c-.16-2.75-.13-5.53-.22-8.62V190h1v19h-1.41s-9.88-15.79-11.24-17.89h0a74.88,74.88,0,0,0,.65,8.72V209Z" transform="translate(-12.45 -11.39)"/>
      <path d="M389,190h7.42c3.56,0,6,2,6,5.44S400,201,396.23,201H391v8h-2Zm1.95,9h5.27c3.07,0,4.33-1.63,4.33-4a3.81,3.81,0,0,0-3.6-4,4.24,4.24,0,0,0-.62,0H391Z" transform="translate(-12.45 -11.39)"/>
      <path d="M421.68,199c0,5.17-2.76,9.89-8.62,9.89-5.34,0-8.47-4.31-8.47-9.77s3-9.76,8.67-9.76C418.47,189.38,421.68,193.48,421.68,199ZM406,199c0,4.35,2.42,8.48,7,8.48,4.9,0,7-4,7-8.52s-2.33-8.3-6.9-8.3c-4.8,0-7,4.1-7,8.39Z" transform="translate(-12.45 -11.39)"/>
      <path d="M429,191h-6v-1h14v1h-6v18h-2Z" transform="translate(-12.45 -11.39)"/>
      <path d="M445,191h-6v-1h14v1h-6v18h-2Z" transform="translate(-12.45 -11.39)"/>
      <path d="M467,199H457v8h11.1l-.22,1H456V190h12v1H458l-1,7h10Z" transform="translate(-12.45 -11.39)"/>
      <path d="M473,200v9h-1V190h6.72c3.69,0,5.64,2,5.64,5a4.28,4.28,0,0,1-3.57,4.46c1.93.47,3.21,1.81,3.21,5v.73a13.45,13.45,0,0,0,.23,3.85h-2a13,13,0,0,1-.27-4v-.5c0-3.16-.91-4.48-4.51-4.48Zm0-2h4.35c3.18,0,4.65-1.19,4.65-3.56s-1.45-3.44-4.25-3.44H473Z" transform="translate(-12.45 -11.39)"/>
      <path d="M493,209v-7.49c.42-.15.38-.3.31-.43L486.53,190h1.71c1.9,2.88,5.21,8.49,6,9.9.81-1.41,4.14-7,6.18-9.9h1.63L495,201.19a.74.74,0,0,0,0,.39V209Z" transform="translate(-12.45 -11.39)"/>
    </g>
  </g>
</svg>
