<svg id="Layer_1" data-name="Layer 1" xmlns="http://www.w3.org/2000/svg" viewBox="0 0 466.5 195.92">
  <defs>
    <style>
      .cls-1, .cls-2 {
        isolation: isolate;
        font-size: 169.2px;
        font-family: Belista;
      }

      .cls-1 {
        fill: #e6e6e6;
      }
    </style>
  </defs>
  <title>name</title>
  <g>
    <text class="cls-1" transform="translate(8.55 155.11)">PasTel</text>
    <text class="cls-2" transform="translate(0 146.57)">PasTel</text>
    <g>
      <path d="M171,174h1v8h11v-8h1v18h-1v-9H172v9h-1Z" transform="translate(-7.36 -2.71)"/>
      <path d="M191.42,186l-2.21,6h-1.65l6.62-18h1.71l6.86,18H201l-2.26-6Zm7-2c-2-5.33-3-7.9-3.42-9.09h0c-.44,1.35-1.59,4.53-3.21,9.09Z" transform="translate(-7.36 -2.71)"/>
      <path d="M206,192V174h1.94s9.37,14.33,10.5,16.28h0a27.47,27.47,0,0,1,.56-8.16V174h1v18h-2.15s-9.33-14.64-10.61-16.63h0a52,52,0,0,1-.24,8.24V192Z" transform="translate(-7.36 -2.71)"/>
      <path d="M225,174h6c4.93,0,8.34,3.43,8.34,8.85S236,192,230.93,192H225Zm1,16h4.22c4.63,0,6.92-3.33,6.92-7.57,0-3.85-2.07-7.43-6.92-7.43H226Z" transform="translate(-7.36 -2.71)"/>
      <path d="M254,175h-6v-1h13v1h-6v17h-1Z" transform="translate(-7.36 -2.71)"/>
      <path d="M264,174h1v8h11v-8h1v18h-1v-9H265v9h-1Z" transform="translate(-7.36 -2.71)"/>
      <path d="M284,184v8h-2V174h6.7c3.7,0,5.66,1.9,5.66,4.73a4.11,4.11,0,0,1-3.57,4.22c1.93.44,3.21,1.71,3.21,4.71v.69a11.22,11.22,0,0,0,.25,3.65h-1a10.79,10.79,0,0,1-.27-3.58V188c0-2.8-.91-4-4.47-4Zm0-2h4.37c3.16,0,4.64-1.19,4.64-3.56s-1.44-3.44-4.26-3.44H284Z" transform="translate(-7.36 -2.71)"/>
      <path d="M313.69,182.84c0,4.89-2.62,9.35-8.16,9.35-5.12,0-8-4.07-8-9.23s2.84-9.23,8.17-9.23C310.63,173.73,313.69,177.61,313.69,182.84Zm-14.69,0c0,4.12,2.27,8,6.58,8,4.65,0,6.6-3.8,6.6-8.05S310,175,305.63,175c-4.61,0-6.63,3.88-6.63,7.93Z" transform="translate(-7.36 -2.71)"/>
      <path d="M320.74,192l-5-18h1.44c1.2,4.32,3.93,14.28,4.34,16.39h0c.33-1.72,3.29-11.62,4.54-16.39h1.55c1.18,4.41,4.06,15,4.35,16.35h0c.57-2.53,3.58-12,4.82-16.35h1.4l-5.5,18H331.1c-1.19-4.23-4-14.66-4.29-16.2h0c-.46,2.35-3.24,11.73-4.53,16.2Z" transform="translate(-7.36 -2.71)"/>
      <path d="M342,192V174h1.49s9.37,14.33,10.5,16.28h0a76.63,76.63,0,0,1,0-8.16V174h1v18h-1.61s-9.33-14.64-10.62-16.63h0c.12,2.36.11,5,.23,8.24V192Z" transform="translate(-7.36 -2.71)"/>
      <path d="M367,174h5.92c3.24,0,5.47,1.8,5.47,4.94S376.2,184,372.76,184H368v8h-1Zm.95,9h5.27c3.07,0,4.33-1.63,4.33-4a3.81,3.81,0,0,0-3.6-4,4.24,4.24,0,0,0-.62,0H368Z" transform="translate(-7.36 -2.71)"/>
      <path d="M397.89,182.84c0,4.89-2.61,9.35-8.15,9.35-5,0-8-4.07-8-9.23s2.86-9.23,8.19-9.23C394.85,173.73,397.89,177.61,397.89,182.84Zm-14.89,0c0,4.12,2.29,8,6.6,8,4.63,0,6.58-3.8,6.58-8.05S394,175,389.65,175c-4.53,0-6.65,3.88-6.65,7.93Z" transform="translate(-7.36 -2.71)"/>
      <path d="M405,175h-6v-1h13v1h-6v17h-1Z" transform="translate(-7.36 -2.71)"/>
      <path d="M420,175h-6v-1h13v1h-6v17h-1Z" transform="translate(-7.36 -2.71)"/>
      <path d="M441,183h-9v8h9.75l-.21,1H430V174h12v1H432v7h9Z" transform="translate(-7.36 -2.71)"/>
      <path d="M446,184v8h-1V174h6.72c3.69,0,5.64,1.9,5.64,4.73a4.11,4.11,0,0,1-3.57,4.22c1.93.44,3.21,1.71,3.21,4.71v.69a12.1,12.1,0,0,0,.23,3.65h-2a10.28,10.28,0,0,1-.27-3.58V188c0-2.8-.91-4-4.51-4Zm1-2h4.35c3.18,0,4.65-1.19,4.65-3.56s-1.45-3.44-4.25-3.44H447Z" transform="translate(-7.36 -2.71)"/>
      <path d="M466,192v-6.8a.71.71,0,0,1-.43-.41L459.17,174h1.62c1.79,3.05,4.92,8.35,5.69,9.68.77-1.33,3.91-6.58,5.85-9.68h1.53l-6.7,10.89a.63.63,0,0,1-.16.38V192Z" transform="translate(-7.36 -2.71)"/>
    </g>
  </g>
</svg>
