<svg id="Layer_1" data-name="Layer 1" xmlns="http://www.w3.org/2000/svg" viewBox="0 0 1808.34 918.47">
  <defs>
    <style>
      .patterns {
        fill: #333;
      }
    </style>
  </defs>
  <title>pagan-symbol-banner-final-WHITE</title>
  <g>
    <path class="patterns" d="M1444.42,802.35c7.68,6.45,16.18,11.89,26.1,14.61a105.49,105.49,0,0,1,12,3.78c9.36,3.85,19.76,5.29,27.42,13,6.15,6.23,14,11,19.47,17.78,9.42,11.65,21.76,19.22,33.7,27.39,5.06,3.46,9.95,7.86,16.74,8.41q16.36,1.35,32.68,3.18c7,.8,14.06,1.9,21,3.17,5.42,1,6.7,3.37,5.81,8.89a50,50,0,0,0-.88,9.77c.57,14.74,1.66,29.47,2,44.2.22,9.85-.53,19.71-.8,29.58,0,1.8.51,3.64.32,5.41-1,8.65-2.12,17.27-3.18,25.91a84.75,84.75,0,0,0-.61,10.92c.16,6.59,2.22,13.11-.12,19.81-.73,2.12.08,6.84,1,7,4.23,1,3.92,3.9,3.92,6.7,0,3.84.08,7.7.08,11.58,2.83-2.62,5.64-5.23,8.29-8,3.62-3.8,9-9.61,9.47-14.65.42-4.24,2.38-8.15,6-9.93-2.23.13-3.06-.85-3.84-4.24a49.85,49.85,0,0,1-1.22-11.93c.08-4.37,2.38-9.15,1.22-13-2.18-7.22-.94-15-4.09-21.88a1.44,1.44,0,0,1,0-.77,307.5,307.5,0,0,0,.94-44c-.78-13.07-.51-26.2-.7-39.29-.07-5.07,1.45-6.36,6.49-5.58,4.81.67,9.71,2,14.47,1.66,11.92-.76,23.94.12,35.74-2.53,7.79-1.74,15.78-2.12,23-6.36,10.52-6.28,21.82-11.26,32.31-17.58,10.91-6.57,23.08-9.69,34.76-14.07,5.51-2.06,9.53-4.75,11.65-10a20.42,20.42,0,0,1,9.6-10.46,14.7,14.7,0,0,0,3.56-3.11c5.72-6.14,11.25-12.46,17.1-18.46a31.12,31.12,0,0,0,8.9-15.66,8,8,0,0,1,6.21-6.74,4.1,4.1,0,0,0,1.46-6.94c-1.82-1.83-1.06-3.18.18-5,1.92-2.89,4.8-5.84,2.12-9.94-.68-1-.21-2.61-.68-3.76-.66-1.55-1.42-3.32-2.67-4.24-.74-.54-3,0-3.78.76-1.51,1.46-2.06,4.14-3.72,5.15-7.32,4.5-7.71,11.89-9.18,19.15-2.12,10.58-6.09,20.37-13.54,28.51-6.89,7.52-16.15,11.45-24.54,16.69a72,72,0,0,1-11.55,5.86c-9.38,3.69-19.06,6.7-28.29,10.8-13.64,6.06-26.47,14-40.94,18.17a126.62,126.62,0,0,1-36.44,5.22c-1.65,0-3.86.45-4.85-.44-3.88-3.39-8-.21-11.92-.72-4.38-.57-9,.54-13.47.78-3.74.21-4.51-2-4.51-5.29.08-9.36-.07-18.68-.07-28-.07-7-1.71-9.15-8.95-11.45-.78,1.19-2.12,2.39-2.37,3.76-1.06,6.89-2.5,13.77-2.5,20.71,0,6-.47,11.56-3.37,16.89a20.05,20.05,0,0,0-4.12-.89c-12.35-.19-22.43-6.73-32.6-12.36-6.35-3.49-12.33-7.58-19.06-10.31-9.79-4-18.57-9.76-26.83-16.14-4.13-3.18-7.28-8-10.16-12.44a42.26,42.26,0,0,0-17.2-15.64c-7.41-3.71-15.33-6.09-22.23-11.3a85.68,85.68,0,0,1-17.46-17.19c-5.15-6.94-9.61-14.55-16.94-19.37a107.42,107.42,0,0,0-18.76-9.83,11.86,11.86,0,0,0-13.5,3.18c-3.49,4-6.9,8.64-8.47,13.59-2.37,7.59-2.67,15.89,1.76,22.95A64.41,64.41,0,0,0,1444.42,802.35Z" transform="translate(-97.88 -161.44)"/>
    <path class="patterns" d="M1775.45,343.51l-3.41.89c4.09,3.12,8.33,5.29,11,8.7A210.88,210.88,0,0,1,1798,374.56c4.71,7.67,8.81,15.73,13.06,23.69,2.41,4.52,5,9,6.79,13.77,3.91,10.66,10.22,19.9,17.55,28.32,7.7,8.88,12.13,19.17,16.58,29.78,3.56,8.47,8.54,16.44,13.15,24.48,3.32,5.79,7,11.37,10.66,16.94,3,4.62,5.93,9.32,9.34,13.64,2.31,2.94,6,4.88,8,8a114.94,114.94,0,0,1,8.75,16.15c4.94,11,3.18,22.78,3.56,34.28a50.2,50.2,0,0,0,.55,5.88c.84,5.2-.49,9.72-3.35,14.15-2.53,3.92-4,8.47-6.54,12.44a92.38,92.38,0,0,1-8.47,11.12c-3.74,4.23-6.74,9-7.12,14.62-.18,3.07-2.66,4.24-3.54,6.5-1.71,4.67-3.37,9.34-5.2,13.95-3.56,9-7.33,17.9-10.84,26.91-.64,1.61-.52,3.55-.82,5.74-2,3.72-4.23,8-6.68,12.27a19.68,19.68,0,0,1-2.82,3.67c-6.35,6.73-14.48,10.66-22.53,14.82-6.64,3.45-13.49,6.58-19.79,10.59a51.59,51.59,0,0,0-12.3,10.66c-3.4,4.14-8,5.79-12.29,7.91-7.79,3.79-15.8,7.1-23.8,10.39-5.57,2.26-11.16,4.8-17,6-8.69,1.78-16.35,5.46-24,9.69-21.52,11.84-44.8,17.23-69.3,17.9-9.21.24-18.44.45-27.65.89-2.73.12-5.43,1.06-8.16,1.33-5.15.6-10.31,1.06-15.48,1.57a8.7,8.7,0,0,0-1.58.47l-.21,1.78q-1.83-1.25-3.77-2.31c-2.43-1.2-4.9-2.34-7.41-3.36-7.78-3.11-15.48-6.53-23.44-9.14-11.39-3.71-19.55-11.88-28.59-19-6.46-5.15-13.33-9.78-20-14.62a49.23,49.23,0,0,1-14.22-16.09,133.34,133.34,0,0,0-26.4-33.15c-12.34-11.19-22.77-24.23-29.23-39.39-4.44-10.43-10.66-20.73-10.5-32.82a69.88,69.88,0,0,0-.61-9,27.05,27.05,0,0,0-5.64-13.13,19.73,19.73,0,0,1-1.13-1.92c3.18-1.32,3.73-3,2.26-6.28-1.64-3.62-1.78-7.88-3-11.72-.46-1.45-2.12-2.51-4.17-3.45v7.73l-1.29.23c-.61-2.46-2-5-1.72-7.35.89-5.63-1.5-10.41-2.88-15.5-2.44-9-2.58-17.77,2.66-26.1q7.53-11.94,14.53-24.2c3.68-6.47,6.79-13.32,10.46-19.78,2.91-5.14,6.35-9.95,9.44-15,2.67-4.33,5.11-8.78,7.62-13.19.11-.21,0-.67.15-.71,7.22-2.11,8.2-9.36,11.41-14.53,7.25-11.7,13.76-23.85,20.52-35.88,2.55-4.56,4.33-9.61,7.26-13.9,5.42-7.95,11.42-15.53,17.22-23.23a46.11,46.11,0,0,1,4.57-5.4c2.53-2.46,5.72-4.06,8.47-6.35,3-2.53,7-4,10.78-5.5,11.65-4.56,23.11-9.53,35-13.16,9.21-2.84,19-3.88,28.43-5.88,2.77-.6,5.41-2.33,8.16-2.47,5.47-.29,11,.38,16.52.27,9.45-.18,19-.11,28.35-1.14,14-1.51,27.9-3.72,41.77-6,5.41-.89,10.66-3,16.06-3.94,3.42-.56,7.11.33,10.59.18a144.41,144.41,0,0,0,15.28-1.29c9.79-1.44,18.72,2.05,27.92,4.13,2.42.55,4.9.73,7.41,1.06Zm-9.07,379.41,1.06-.19,3-5.13C1769,711,1767.76,705,1766.66,700c1.62-1.38,2.55-2.87,3.55-2.92,6.22-.35,9.24-5.14,12.7-9,4-4.39,3.81-5.54,0-10.18a7.6,7.6,0,0,1-1.47-7.66,14.94,14.94,0,0,0,.75-4.24c0-3.74,2.12-4.4,5.14-3.7.89.2,1.78.64,2.66.89,5.65,1.39,11.29,2.73,16.88,4.16.53.13,1.28.77,1.29,1.18a3.37,3.37,0,0,1-.7,2.47c-4.6,3.56-9,7.51-15.21,8.25-1.42.17-2.67,1.32-4.84,2.41,6.58,0,12.16.89,17.33-.21,6.47-1.34,9.64,2.25,12.33,6.5,1.23,2,1.06,5.14.74,7.67-.24,2.19-1.54,4.23-2.36,6.35l.89.89c1.83-1,3.69-1.88,5.49-2.9a37.76,37.76,0,0,0,19.26-25.79c2.54-11.65,3.18-23.69,7.93-34.94,2.67-6.42,4.24-13.33,7.12-19.66,6.27-13.81,16.15-25.18,25.93-36.58,1.13-1.32,1.47-3.43,1.78-5.29a28.42,28.42,0,0,0,.27-5.45c0-1.68.28-3.55-.38-5-2.19-4.8-4.23-9.73-7.24-14-12.17-17.65-21-37.06-29.71-56.44-.33-.71-1.06-1.89-.82-2.11,2.86-2.92-.09-4.37-1.57-5.82-5.72-5.58-12.44-10.09-16.57-17.28a47.32,47.32,0,0,0-7.54-10c-5-4.91-9.91-9.63-13.1-16.08q-7.76-15.74-16.41-31.09c-2.89-5.12-6.63-9.78-10-14.59l-1,.63a65.39,65.39,0,0,1-.07,8.63c-.78,5.87-6,8.11-10.79,4.84-3.55-2.43-5.82-9.24-4.57-13.53,1.4-4.75,5.08-7.41,10.71-7.49a40.66,40.66,0,0,0-1.77-4.39c-3.65-7-6.69-14.59-13.45-19.06-4.51-3-10-4.49-15.11-6.51-3.12-1.23-6.35-2.2-9.53-3.18-2.12-.66-4.3-1.56-6.42-1.49-.65,0-1.21,2.93-1.78,4.51l-44.12,2.16-.31,1.68c1.33.58,2.63,1.21,4,1.75,3,1.21,6.28,2.06,9.14,3.63,3.61,2,4.63,8.15,1.68,9.64-2.66,1.34-6.08,2.81-8.83,2.34-9.24-1.6-17.77.57-26.41,3.17a23.32,23.32,0,0,1-8.16.39,3.87,3.87,0,0,1-2.67-2.35c-2-7.36-2-7.41.69-13.56-.44-.21-.89-.66-1.31-.59-8.11,1.56-16.25,3-24.36,4.84-11.64,2.56-22.44,8.94-34.94,7.3a1.82,1.82,0,0,0-1.14.26c-5.76,3.88-13,2-19.14,5-5.66,2.77-12.13,3.79-18.13,5.91a5.16,5.16,0,0,0-2.94,3.61,99.93,99.93,0,0,0,.74,11.47l3.91.59c7.06,1,10.88,6.12,10.1,13.24-.63,5.87-3.85,9.77-9,12-2.9,1.25-3.7,3-3.23,5.85.21,1.3.28,2.67.61,3.91,1.71,6.79-.88,12.89-2.54,19.69-3-4.67-3.5-5.29-.89-9.37,3.38-5.29.67-10.32.61-16.07a70.81,70.81,0,0,1-7.55,4,11.4,11.4,0,0,1-6,.89c-2.12-.53-4.23-12.79-2.66-14.63.31-.39,1.06-.48,1.31-.89,2.11-3,4.23-5.89,6.22-9,1.2-1.86,1.65-4.36,3.18-5.85,4.73-4.66,3.17-10.1,2.93-16.48-2.12,1.31-3.78,1.92-4.85,3.05q-5,5.29-9.61,11c-3.56,4.23-7.31,8.52-5.94,14.82,0,.17-.51.47-1.16,1.06-.39-1.57-.71-2.84-1.24-5-1.62,1.69-3.1,2.77-4,4.24-3.73,6.21-7.24,12.56-10.91,18.79-6.14,10.42-12.24,20.85-18.57,31.16-2.67,4.35-6,8.28-8.76,12.6-6.43,10.26-12.53,20.71-19,31-5.46,8.65-11.43,16.94-14.58,26.91-1,3.08-1.32,6.91-6,7.91-2.5.54-2.35,5.71-.38,7.78a9.84,9.84,0,0,1,2,3.9c3.33,10.67,6.22,21.46,10,31.94,2.75,7.63,6.88,14.77,10,22.23,2.79,6.65,5.29,13.44,7.53,20.28.76,2.24,1.27,5.29.4,7.22-1.78,3.92-3.84,7.25,1.77,9.53.26.1.26.72.49,1.06,2.12,2.72,4.11,5.53,6.35,8.1,1.19,1.35,3.18,2,4.24,3.49,4,5.89,7.41,12.14,11.55,17.93,4.62,6.54,9.65,12.8,14.69,19.06a6.06,6.06,0,0,0,4.23,1.87c2.92.05,6,2.28,5.48,5.14-.53,3.24,1.06,4.88,3.32,6.51a42.3,42.3,0,0,1,6.23,5.18c1.92,2.11,3.24,4.69,5.12,6.79,3.85,4.3,7.41,9,12,12.44,5,3.85,11,6.54,16.55,9.66a1.89,1.89,0,0,0,1.48-.24c4-1.78,5.72,1.06,8.09,3.56a30.33,30.33,0,0,0,9,6.21c1.22.57,3.5-1.14,6-2.12,1.14,1.29,2.39,3.55,4.3,4.64s4.23.89,6.44,1.38c11.29,2.6,22.64,4.44,34.28,2.42,8.88-1.53,17.84-3.07,26.79-4.45a6.79,6.79,0,0,1,4.23.89c5.11,3.27,8.09,2.86,12-1.68a8.26,8.26,0,0,1,4-2.67c3.55-.79,7.23-1.06,10.85-1.62,7.41-1.06,14.75-2.58,20.82-7.29a6.69,6.69,0,0,0,1.89-4.45c.16-3.36-3.18-7.34,2-9.67.09,0,.14-.23.15-.36.2-3.09,2.38-2.79,4.57-2.89a12.41,12.41,0,0,0,4.87-1.18c1.6-.79,2.76-2.67,4.38-3.12,2.87-.89,4.09-1.92,2.77-5-.69-1.65-.6-3.63-1-5.42a25.89,25.89,0,0,0-1.06-3.07,19.48,19.48,0,0,0-2.86,1.77c-4.24,3.74-8.16,7.72-13.92,9.22-5.46,1.43-7.41.07-6.22-5.41.39-1.77,1.38-4,2.82-4.9A56.43,56.43,0,0,1,1724,713c6.51-2.12,7.87-1.2,11.65,4.63,1.13,1.77,2.48,3.41,3.54,5.2a4.54,4.54,0,0,1,1,2.81c-1.16,5.09.82,9.16,4.12,13.64,4.5-6.89,11.09-3,17.13-3.4-.38-2.78-.69-5.1-1.06-7.41a1.55,1.55,0,0,0-.54-1,42.44,42.44,0,0,1-4.45-1.06,7.23,7.23,0,0,1-3-1.84c-3.66-4.12-7.83-8-10.59-12.64-7.17-12-11.28-25.21-13.38-39-.42-2.79,1.06-4.07,3.64-3.17,9.39,3.17,16.26,9.53,21.55,17.53a73.6,73.6,0,0,1,11.13,29.38q.68,3.15,1.65,6.23Zm94-218.71-1.17.5c2.34,5.68,4.24,11.64,7.12,16.94,7,13.23,14.12,26.47,21.93,39.24,7.24,11.83,2.38,21.24-3.9,31-4.74,7.41-10.13,14.39-14.44,22-3.32,5.88-5.54,12.43-8,18.73-1.32,3.38-2.11,7-3.17,10.44-2.41,7.62-5.67,15.1-7.11,22.89-2.23,12.25-6.76,23.36-15.88,31.51-11.88,10.59-24.83,19.91-37.32,29.74a51.7,51.7,0,0,1-4.35,2.86c2.4,1,4,2.23,5.29,1.95a34.48,34.48,0,0,0,8.88-3.12c6.36-3.32,12.71-6.83,19-10.47,8.2-4.8,16.27-10,20.55-18.95,3.26-6.85,6.15-13.91,8.79-21.05,3.09-8.38,5.4-17.06,8.6-25.41,3.56-9.17,7-18.46,11.81-27s11.15-16.47,16.94-24.6c4.24-6.1,4.72-12.9,3.93-20a22.81,22.81,0,0,1-.19-4.67c1.32-12.23-.31-23.88-7-34.44-1.51-2.4-3.74-4.35-5.66-6.49-3-3.29-6.22-6.35-8.89-9.89-5.47-7.11-10.48-14.49-15.62-21.77Zm-129.6-150.42c7.32,1.78,14.64,3.32,21.89,5.24,9.93,2.66,18.08,7.3,23.42,17,6.73,12.29,14.82,23.84,22.32,35.7a9.21,9.21,0,0,0,1.19,1.31l7.64-3c-1-1.95-1.9-3.81-2.87-5.64-4.24-7.87-8.25-15.88-12.71-23.56-3.79-6.55-7.29-13.48-12.27-19.06-10.79-12.11-24.13-18.92-41.08-16-3.18.55-6,.79-6,5,0,1.06-.92,2.06-1.48,3.05Zm-3.39,403.81c1.06,1.22,2.54,2.12,2.48,2.91-.37,4.23,2.33,4,4.85,3.36q17-4.51,34-9.42c3.18-.94,6.23-3.18,9.45-3.56,6.15-.76,9.1-5.41,12.86-9.14,3.42-3.36-.48-5-2.11-6.84-.65-.76-2.67-1-3.79-.61-6.36,1.89-12.45,4.93-18.84,5.89-14.58,2.19-25.87,11.14-38.86,17.41ZM1580,785.37c8.34,6.49,18.84,7.47,28.93,7.17,8.37-.25,16.69-1.49,25.16-.88,7,.46,7.41-.25,8.64-6.78,1.06-5.59.17-6.23-5.6-6.23-11.94.06-23.92,0-35.85-.74-6.75-.41-13.42-2.19-19.8-3.3-.45,3.51-.88,6.81-1.45,10.76Zm80.16,4.2a48.87,48.87,0,0,0,7.64-.59,182.74,182.74,0,0,0,47-16c6.18-2.93,6.12-3.63,3.68-11.21-19.66,9.34-41.43,9.44-61.84,13.68,1.31,5,2.33,9.17,3.54,14.08ZM1811.5,418.88c-.43.58-.89,1.16-1.32,1.78l-5.83,4.37c5.6,8.78,11.33,18.17,17.53,27.22,2.67,3.86,6.52,6.84,9.42,10.59,3.88,5,7.27,10.3,11,15.38,1.57,2.12,3.46,4.06,5.8,6.77-2.24-7-3.31-13.43-6.28-18.85-4.16-7.64-7.23-16.14-14.21-22.07-1.95-1.65-3.32-4-4.77-6.23q-5.13-7.65-10.06-15.48a16.88,16.88,0,0,1-1.23-3.45Zm-75.88,258c1.78,19.06,10.66,33.88,23.92,47.36.52-16.32-7.31-40.23-23.88-47.36Zm-261.15-6c-2.74-4.84-6.16-9.94-8.62-15.46s-3.85-11.4-5.65-16.89c-1.78,1.06-2.92,2-4.23,2.43-3.48,1.06-5.44,3.8-4.78,7.16.11.52.3,1.45.11,1.56-2.75,1.48-.89,3-.14,4.57.94,2,1.85,4.06,2.78,6.07,1.78,3.92,3.48,7.9,5.5,11.65a4,4,0,0,0,3.27,1.68c4.07-.74,8-1.89,11.81-2.82Zm42.09,70.83c-.18.23-.36.47-.55.69l3,3.31,3.75-.89c.75,3.55,4.39,2.27,6.36,3.79,7.48,5.79,14.82,11.82,22.57,17.23,4.17,2.91,9.1,4.75,13.69,7a3.64,3.64,0,0,0,.82-.55c-.1-1.9-.17-3.11-3-3.9-2.44-.68-4.08-3.87-6.35-5.65-8.83-7-18-13.58-25.48-22.23-3.75-4.31-8.34-7.91-12.45-11.77-.63.84-1.28,2.5-2.47,3.18-3.56,1.94-2.67,3.91-.51,6.14,1,1.06,2,2.12,2.91,3.18.2.24.18.65.28,1.05Zm-62.11-120.52c-.89-1.78-1.85-3.56-2.54-5.3-3.88-10.45-8.29-20.74-11.37-31.44-3.55-12.35-4.7-14.16-14.75-14.46-.21,0-.42.24-1,.59a41.75,41.75,0,0,0,1.9,5c2.48,5,5.42,9.77,7.55,14.91,3.65,8.71,6.85,17.62,10.17,26.47,2.42,6.49,2.37,6.52,9.28,5,.12-.09.2-.24.72-.73Zm349.41,92c-.17-.43-.35-.85-.52-1.26a7.9,7.9,0,0,1-9.23,1.22c-.22-.11-.69.39-1.06.43a63.46,63.46,0,0,1-6.87.71c-3.73,0-7.69-.89-9.53,3.82-.35.89-1.43,1.53-2.26,2.12a99.15,99.15,0,0,0-8,6c-1.06,1-1.31,3-1.72,4.56a3.5,3.5,0,0,0,2.19,1.06c4-.66,8.36-.75,11.86-2.5,7.68-3.82,15-8.47,22.31-12.91,1.21-.71,1.94-2.12,2.88-3.18Zm-296.63,2.31-22.23-29c-1.63,3-3,5.55-4.45,8.15l-3.77-1.19a7.17,7.17,0,0,0,1.78,3.86c5.52,6.36,11,12.61,16.68,18.78a4.79,4.79,0,0,0,3.55,1.37,81.45,81.45,0,0,0,8.47-2Zm72.57-349.6c-1,.34-2.2.69-3.36,1.14-6.56,2.58-13,5.62-19.69,7.67-4.13,1.25-6.29,3.17-6.48,7.41,0,1-.23,2.6.16,2.78a4.86,4.86,0,0,0,3.3.1c3.09-1.06,6-2.57,9.16-3.55,6.55-2,13.18-3.66,19.06-5.29-.75-3.77-1.37-6.82-2.11-10.28Zm137.72-18.11c-8.16,1.55-17.29,3.38-26.47,5-12.81,2.25-25.65,4.31-38.47,6.55-.89.16-1.63,1.06-2.45,1.64a13.42,13.42,0,0,0,2.81,1.06,8.28,8.28,0,0,0,2.31-.39c16.23-2.67,32.35-6.15,48.93-5.95,6.23.09,12.5,0,19.06,0ZM1456.66,513.11c-5.51-2.12-5.6-2.12-8.38,2.83-3.32,5.9-6.57,11.82-9.63,17.84-2.66,5.15-5,10.45-7.49,15.88l5.22,1.68c6.85-12.94,13.52-25.5,20.28-38.23ZM1602.34,372l39.83-8.32c-2.67-3.27-3.88-3.45-9-3.12-7.84.5-15.69.62-23.54,1-2.31.1-4.62.35-6.8.53-.17,3.55-.32,6.62-.47,9.93Zm-90,38.06c.29.35.56.7.84,1.06,1,0,2.37-.43,3,.07,2.57,2,3.73.51,5.3-1.37,3.6-4.17,7.54-8,11.34-12l3.29-3.56-4.3-7.27-19.48,23.1Zm-22.46,40.34-13.22,23.41c2.23,1.26,4.24,2.56,5.73,0,4.05-6.85,7.83-13.85,11.81-20.94ZM1470.73,482l-11,15.1,5.89,3.85c2.56-4.71,4.92-9.18,7.41-13.58,1.5-2.7.46-4.14-2.28-5.38Zm38.11-60.05h-1.56c-3.41,5.59-6.89,11.14-10.15,16.81-.37.64.44,2,.7,3,1-.42,2.35-.57,2.78-1.3q4.44-7.46,8.47-15.17c.43-.88-.12-2.22-.21-3.32Zm148.6-52.77c0,.35.06.68.09,1.06,6.35,1.55,19.61-.59,23.55-4.61Z" transform="translate(-97.88 -161.44)"/>
    <path class="patterns" d="M1457.83,455.62c-.32.75-2.55,1.33-3.55,1" transform="translate(-97.88 -161.44)"/>
    <path class="patterns" d="M1618.5,507.16c-1.4.22-2,.14-2.33.39-5,4.45-11.09,3.42-16.94,3.18-3.66-.14-5.29-3.79-3-6.71a93.36,93.36,0,0,1,8.62-9.69c.89-.89,3.06-.73,4.58-.53,9.53,1.29,9.77,1.61,9.46,10.93.24,0,.55.17.69,0,4.9-3.8,9-8.47,15.1-10.89,3-1.18,2.84-3.47-.33-5-11.74-5.68-19.54-15.37-26.06-26.2-4.13-6.85-8.47-13.77-11.44-21.1a64.28,64.28,0,0,1-3.07-39.18,9,9,0,0,0,.47-2.67c-.31-3.84,1.78-5.56,5.3-3.75a32.21,32.21,0,0,1,6.15,4.88c4.82,4.24,9.91,8.32,14.22,13,8,8.72,15.56,17.93,19.06,29.57,2.29,7.56,4.67,15.18,5.8,23,.89,6.26,0,12.81-.13,19.21,0,.4-.89.74-1.33,1.16-.73.69-1.42,1.41-2.12,2.12.13.39.27.78.39,1.17,2.66.27,5.3.61,7.91.78,3.94.25,7.89.39,11.82.57,4.23.18,8.4.12,12.55.6,10.37,1.2,20,4,27.88,11.55,6.8,6.59,14.64,12.23,20.73,19.4,5.17,6.08,8.81,13.56,12.54,20.73,2.12,4,2.67,8.73,7.07,11.28.61.36.88,1.57,1,2.43,2.4,10,4.55,20,7.12,29.86a87.07,87.07,0,0,1,1.61,36.7c-1.06,6.35-2.32,12.35-5.53,17.71-2.94,4.89-6.71,9.3-10.31,13.77-3.18,4-6.66,7.8-10.07,11.64a12,12,0,0,1-3.18,2.93c-8.39,4.36-16.76,8.8-25.32,12.8a49.18,49.18,0,0,1-22.7,4.43,20.66,20.66,0,0,0-2.61.31c1.19,2.77,2.23,5.29,3.33,7.76,9.64,21.88,8.89,43.53-1.89,64.72-1.06,2.17-3.93,3.46-6.69,5.78-1.88-2.67-4.33-5-5.41-7.84-3-7.83-6.08-15.73-7.75-23.89a53.64,53.64,0,0,1,4.83-36.43c1.2-2.34,2.37-4.7,3.54-7,2-3.94,1.06-5.67-3.49-6.35-3.91-.58-7.87-.74-11.77-1.28-7.7-1.06-15.59-1.48-23-3.55-6.52-1.87-12.44-5.48-18.13-9.69-4.9-3.66-9.68-7.17-12.7-12.55-2.88-5.15-5.47-10.46-8.23-15.68a37.21,37.21,0,0,0-2.12-3.17c-5.65,3.8-10.95,7.62-16.5,11-14.49,8.95-30.2,14.29-47.35,14.46-8.47.1-17,.21-25.41-2.6-4-1.37-8.56-1.27-12.7-2.35-3.74-1-4.49-3-1.59-5.49,4.78-4.08,10.31-7.3,15.48-11,1.06-.73,1.67-2.11,2.75-2.61,13.16-6.22,27.1-10.47,41.58-9.84,13.18.58,26.65.53,39.43,5.14.36-.05.71-.12,1.06-.2a29.46,29.46,0,0,0-.94-4.16c-1.51-4-3-8.09-4.81-12-.79-1.71-2.43-3-3.68-4.54a31.38,31.38,0,0,1-4-5c-.77-1.44-.79-3.31-1-5-.89-7.78-.73-8.08,6.75-9.37,2.27-.39,3.24-1.15,3.88-3.51,1.48-5.41,3.56-10.67,5.3-16a9.21,9.21,0,0,0,.21-4.94l-5.13,6.47-1.66,1.41c-2.59-3.34-5.12-6.72-7.79-10-2.12-2.67-2-4.94,1.25-5.74a51.18,51.18,0,0,1,11.64-1.19c.77,0,1.77,2,2.27,3.18s.42,2.73.77,5.29a31.74,31.74,0,0,0,2-3.56c2.41-6.21,4.88-12.44,7-18.77a4.56,4.56,0,0,0-1.55-3.93,41.26,41.26,0,0,0-9.17-5.29c-13-4.92-25.34-11.19-36-20.12A57.5,57.5,0,0,1,1532,502.22c-6.22-11.13-11.41-22.81-17-34.29a8.51,8.51,0,0,1-.43-1.86c7.11-4.14,13.49-1.36,19.38,2.17,6.75,4,13.16,8.69,19.56,13.32a109.9,109.9,0,0,1,13.26,10.49,146.12,146.12,0,0,1,11.92,14.14,75.23,75.23,0,0,1,13.12,27,1.32,1.32,0,0,0,.1.39l3.4,5.38c1.4-1.55,2.91-3,4.17-4.66,4.14-5.42,8.3-10.82,12.24-16.38C1614.12,514.76,1616,511.21,1618.5,507.16Zm54.66,148.45c4-.33,7.32-.36,10.59-.89,10.18-1.68,20.22-3.69,27.43-12.19s13.69-16.54,14.92-28.68c2.44-24-4-45.6-16.06-65.5-7.57-12.44-17.85-23.1-31.22-30.11-9.71-5.13-19.25-9.06-29.43-1.31a7.36,7.36,0,0,1-1.78.82,29.49,29.49,0,0,0-15.88,14.7,54,54,0,0,1-4.91,8.07c-10,13.56-17.31,28.39-20,45-1.85,11.55-2.4,23.29-3.3,34.94a7.76,7.76,0,0,0,1.78,5,199.22,199.22,0,0,0,13.7,14.62,30,30,0,0,0,9.78,6.53A136.53,136.53,0,0,0,1673.16,655.61ZM1657,503.83v-1c-3.18,0-6.43-.16-9.63,0A21.8,21.8,0,0,0,1629,514c-2.94,5-5.61,10.14-8.88,14.89-6.12,9-13.77,16.94-17.59,27.39-3.56,9.85-8.47,19.25-11.76,29.18-3.89,11.65-4.24,23.85-2.53,35.95a54.93,54.93,0,0,0,4.43,14.1,78.3,78.3,0,0,0,7.25,12.59c5.46,7.91,12,14.64,21.26,18.21a84.39,84.39,0,0,0,30.21,5.3,147.37,147.37,0,0,1,22.78,2c11.15,1.83,21.44.74,30.94-5.87,3.86-2.67,8.69-4.15,12.09-7.24,4.45-4.07,8.06-9.14,11.84-13.92.5-.61-.06-2.11-.15-3.17a8.93,8.93,0,0,0-2.75,1c-3.31,2.8-6.49,5.76-9.72,8.63-4.24,3.81-8.89,6.86-14.66,8.19-6,1.37-11.85,3.46-17.85,4.9-4.8,1.15-9.77,2.77-14.59,2.46a91,91,0,0,1-19.6-3.94c-8.47-2.51-16.78-5.75-25.16-8.69-.66,1.85-1.06,3-1.49,4.17l-1.39-.21c.11-1.48.23-3,.36-4.63-1.65-.76-3.38-2.12-5.22-2.29-8.47-.75-13.77-6.71-17.36-12.91a43.79,43.79,0,0,1-4.81-32.11c1.06-4.34,2.12-8.88,1.92-13.27-.78-14.41,4.24-27.4,10.39-39.66,6.66-13.19,14-26.3,24.88-36.77a51,51,0,0,1,10.48-8C1647,507.7,1652.08,505.94,1657,503.83Zm-59.51-101.89c0,7.41-.55,14.22.16,20.92a55.77,55.77,0,0,0,4.23,16.94c3.5,7.73,8,15,12.44,22.23,5.3,8.71,12.07,16.16,21.05,21.42,2.28,1.35,3.55,1.06,4-1.31.65-3.56,2-7.57,1.06-10.83-3.41-12.31-5.55-24.83-11.9-36.51-7.1-13-17.93-21.74-28-31.53C1600.18,402.87,1599.29,402.73,1597.51,401.94Zm-13.86,131.83.89-1.39c-3.18-14-11.83-24.93-21.67-34.43-9-8.67-19.68-15.61-29.85-23-3.18-2.33-7.25-3.55-10.9-5.29A363.06,363.06,0,0,0,1538.78,502c2.35,4,5.19,8.21,8.88,10.93,7,5.21,14.68,9.59,22.23,14,4.43,2.65,9.17,4.66,13.77,6.92Zm-13.51,105.88c-12-5.06-45-4.11-63.39,1.9a55.05,55.05,0,0,0-20.76,12c17.39,5.08,66.26,3,84.14-13.76Zm97,52c-12.87,14.82-12.17,55,1,65.81,10.2-10.5,10.8-52.21-1-65.87Zm20.67-178.71-.33.57c4.8,3.75,9.78,7.27,14.32,11.35,2.94,2.67,5.16,6.23,7.69,9.35A52.19,52.19,0,0,1,1714,540c3.83,6.46,7.78,12.86,11.08,19.6,5.08,10.31,9.18,21.17,10.23,32.62.89,9.53.61,19.19.48,28.79,0,2.93,1.66,3.69,3.62,4.28.6.2,2.28-1.05,2.38-1.76.74-5.3,2.12-10.78,1.58-16a233.69,233.69,0,0,0-4.73-29.65c-1.63-7.21-3.55-14.63-9.67-19.87a14.63,14.63,0,0,1-3.33-4.86A98.5,98.5,0,0,0,1703.49,523a77.69,77.69,0,0,0-9.52-7,53.17,53.17,0,0,0-6.17-3.11Z" transform="translate(-97.88 -161.44)"/>
    <path class="patterns" d="M1734.35,396.06c-.29,1.78-.62,3.49-.89,5.29,0,.5.29,1.06.21,1.55-1.41,7.87-2.81,15.73-4.31,23.59a100.89,100.89,0,0,1-2.52,10.71c-4.11,13.17-10.17,25.35-19.46,35.66-4.8,5.29-10.11,10.17-15.34,15.11-.89.78-2.81,1.33-3.66.88s-1.33-2.28-1.4-3.55c-.53-10.08-.89-20.12-1.36-30.21v-.39c-1.9-2.94-.34-5.67.51-8.42,2.47-7.87,4-16.19,7.59-23.51,6.45-13.17,13.86-25.91,25-36,4-3.54,7.74-7.41,11.47-10.95,2.42,1.83,4.43,2.91,5.81,4.54.89,1.06,1.49,3.93,1.06,4.23C1732.2,387.9,1734.73,392.14,1734.35,396.06Zm-3.3-4.83a14.41,14.41,0,0,0,0-3.08c-.34-1.32-.89-2.58-1.36-3.87-1.13.51-2.53.76-3.33,1.59-6.23,6.36-12.9,12.49-18.46,19.44-7.64,9.53-12.38,20.82-15.31,32.66a65.46,65.46,0,0,0-1.92,17.13,41.78,41.78,0,0,1-1.38,10.73c-.61,2.66,0,5.82.69,8.61.14.57,3.41,1.3,4.15.66a51.89,51.89,0,0,0,8.57-8.64,169.84,169.84,0,0,0,17.45-29.4c6.94-14.83,9.29-30.56,10.9-45.81Z" transform="translate(-97.88 -161.44)"/>
    <path class="patterns" d="M1572.63,588c-5.56-3.82-10.51-1.06-15.82.4-11.65,3.26-23.3.58-34.77-1.89-20.44-4.45-39.48-12.92-58.83-20.44a21.28,21.28,0,0,1-5-3.17,2.7,2.7,0,0,1-1.06-2.2,2.8,2.8,0,0,1,1.93-1.56c14.51-2.57,29-5.5,43.87-4.13,10.07.89,20.24,1.26,30.13,3.11,11.91,2.23,21.92,8.79,30.6,17.14,1.6,1.53,2,4.24,3.43,6a54.51,54.51,0,0,0,6.08,5.38Zm-102.49-27-.25,1.52a14.62,14.62,0,0,0,2.12,1.26c6,2.3,12,4.6,18.07,6.82,6.29,2.32,12.44,5,18.93,6.71,9.67,2.54,19.47,4.66,29.32,6.35,6.6,1.14,13.38,1.59,19.81-1.38,2.12-1,3-2.22.67-4-3-2.32-5.92-4.82-9-7-12-8.33-26.17-9.89-39.9-11.12C1496.78,559,1483.43,560.57,1470.14,561Z" transform="translate(-97.88 -161.44)"/>
    <path class="patterns" d="M1832.84,493.94c-4.7,6-8.07,11-12.23,15.33-9.26,9.53-18.77,18.8-30.94,24.82-7.51,3.7-14.48,8.62-22.23,11.78-6.47,2.67-13.62,3.77-20.53,5.3-2.67.56-4.07-2-2.61-4.85,2-3.84,4.44-7.42,6.35-11.31,5.94-11.72,14.47-21.18,24.7-29.32,11.1-8.79,23.92-12.38,37.84-12.44C1819.53,493.2,1825.77,493.66,1832.84,493.94Zm-7.71,3.71c-4.1-.23-7.29-1.06-10.26-.49-9,1.62-18.22,3-26.89,5.88a39.77,39.77,0,0,0-21.56,17.31c-2.9,4.69-6.09,9.21-9.14,13.77-1.88,2.83-3.76,5.69-5.94,9a20.75,20.75,0,0,0,2.36.14c10.06-1.19,19.06-5.39,27.53-10.42,6.36-3.7,12.43-7.68,18.55-11.65,9.44-6.15,18.16-13,25.37-23.56Z" transform="translate(-97.88 -161.44)"/>
    <path class="patterns" d="M1770.69,598.19c33.25,3.81,64.58-3.41,95.07-16.83-2.41,1.25-4.85,2.45-7.21,3.79-13.52,7.73-27.53,14.39-43,17.24a110.24,110.24,0,0,1-44.35-.77c-3-.66-5.5-3.24-8.23-4.93,1.86-1.91,3.56-4,5.58-5.69,7.77-6.68,16.79-11.09,26.32-14.74,12-4.6,24.53-5.18,37.19-5.71,12.31-.52,24.07,2.31,36,4.44,1.06.18,1.86,1.18,2.79,1.78l-.37,1.06c-3,0-6.1.19-9.12,0-9.78-.69-19.55-1.55-29.32-2.3-2.36-.18-4.75-.18-7.11-.41-7.3-.73-14,1.38-20.75,3.87-3.18,1.21-6.59,1.93-9.77,3.18-3,1.2-5.76,2.93-8.7,4.23-2.11,1-4.5,1.41-6.35,2.67-3.28,2.19-6.22,4.84-9.36,7.31Z" transform="translate(-97.88 -161.44)"/>
    <path class="patterns" d="M1755.45,627.68A105.23,105.23,0,0,1,1791.1,626a141.31,141.31,0,0,1,20.38,4.15c8.08,2.32,14.28,7.85,19.77,14,1.73,1.93,2.42,4.45,5.3,5.54,1.93.71,1,3.62-1.29,4.23a67.91,67.91,0,0,1-38.58-.61c-8.88-2.84-16.94-8.37-25.23-13a143.88,143.88,0,0,1-12.71-8.47C1757.66,631,1756.94,629.58,1755.45,627.68Zm73.28,21.7c-13-16.65-31.31-17-48.94-18.92-3.56-.38-7.26.25-10.88.42v1.3c6.48,3.42,13.33,6.35,19.36,10.35,8.47,5.56,17.58,7.55,27.35,7.6C1819.79,650.13,1824,649.67,1828.73,649.38Z" transform="translate(-97.88 -161.44)"/>
    <path class="patterns" d="M1553.79,742c3-12.59,5.29-24.19,8.64-35.45,3-10,6.56-20.12,14.22-27.75,2.67-2.63,6.93-3.48,10-5.75,5-3.76,9.52-1.46,13.95.76,3.83,1.89,6.35,5.58,6,9.53a52.32,52.32,0,0,1-3.88,15.42c-4.71,11.37-13.53,19.56-22.86,27.08-6.63,5.29-13.61,10.27-20.6,15.1C1557.93,741.89,1555.75,741.67,1553.79,742Zm6.5-9.42c2.67-1.21,4.54-1.78,6-2.86,13.11-9.77,25.66-20.11,33.61-34.84,2.12-3.94,4-8.57,1.39-12.71a10.42,10.42,0,0,0-10.59-4.89c-6.86,1-13.83,7.49-15.55,14.34l3.41-3.18c1,7.28.83,7.41-5.77,6.13-5.8,11.72-8.47,24.55-12.58,38.07Z" transform="translate(-97.88 -161.44)"/>
    <path class="patterns" d="M1608,708.66c3.61-2.57,5.56-7.41,10.66-6.21a36.06,36.06,0,0,1,8.77,3.1c3.78,2,7.23,3.18,11.54,1.28,4.92-2.17,8.64,1.46,9.11,6.73.63,6.75-3,9.9-8.21,12.13-3.55,1.52-6.66,1.43-9.77-2.12-2.25-2.53-6.12-4.23-9.53-4.92-5.3-1.06-10.45-1.31-11.38-8.14C1609.06,709.93,1608.47,709.44,1608,708.66Z" transform="translate(-97.88 -161.44)"/>
    <path class="patterns" d="M1546,699.46a57,57,0,0,1-.49-7.73,16.83,16.83,0,0,0-4.11-12.31c-1.57-1.93-1.64-5.14-2.12-7.8-.09-.49,1.21-1.52,2-1.78,5.2-1.78,10.5-3.3,15.67-5.17,2.81-1,5.41-2.6,8.16-3.82,3.85-1.72,4.6-.18,6.48,3.17,4.23,7.5-1.92,10.34-5.3,14.57a82.73,82.73,0,0,1-5.65,6.89,4,4,0,0,1-3.5.54c-2.83-.89-5.53-2.23-9.25-3.77-.55,6.26-1.06,11.78-1.52,17.29Z" transform="translate(-97.88 -161.44)"/>
    <path class="patterns" d="M1748.2,451.85l-1.37-2.76,7.6-9.23.81,2.18,2.12-.88c1.06,1.32,2,2.43,2.92,3.55l2.73-2.61c1.78,4.11,0,6.14-13.48,14.09,4.07,9.07-2.47,14.21-7.85,19.67-2.12,2.19-6.51.89-9.9-2.11-2.62-2.32-1.23-4.12.08-6.47,2.82-5,5.29-10.23,7.73-15.46,1.88-4.09,3-4.4,6.35-1.16.55.54,1.06,1.13,1.55,1.7Z" transform="translate(-97.88 -161.44)"/>
    <path class="patterns" d="M1543.08,600.51c2.34,1.11,4.77,2.44,7.32,3.46,4.59,1.82,8.47,3.7,9.1,9.72.37,3.48,2.94,6.73,4.71,10.48-1.34.14-2.12.47-2.8.25-6.73-2.11-13.5-1.13-20.31-.64-5.15.37-5.53-.35-4.33-5.29a55,55,0,0,0,1-5.43c.35-2.6.14-5.15,3.17-6.85C1542.24,605.46,1542.35,602.58,1543.08,600.51Z" transform="translate(-97.88 -161.44)"/>
    <path class="patterns" d="M1684,416.14c-3.17,7.72-5.77,14.41-13.13,17.71a15.06,15.06,0,0,0-4.35,3.25c-3.89,4-8.88,5.63-14.21,6.14-1,.1-2.3-1.34-3.24-2.31-.47-.48-.41-1.49-.63-2.24-.71-2.45-2.78-6.23-1.91-7.12,2.24-2.27,5.85-4.72,8.76-4.55,8.09.48,14.31-2.67,20.38-7.32C1677.73,418.19,1680.45,417.61,1684,416.14Z" transform="translate(-97.88 -161.44)"/>
    <path class="patterns" d="M1581,759.91c-2.67-5.49-10.42-6.21-11.23-13.32,1.55,1.06,2.87,2.49,4.44,2.81s3.34-.48,5.39-.85c-.11-1.06-.19-2.28-.41-3.56-.7-3.69,1.67-6.5,5.9-6.86a13,13,0,0,1,2,0c4,.29,10.31,4.24,10.92,6.77.72,3-2.88,7.93-7.75,10.47C1587.32,756.84,1584.38,758.22,1581,759.91Z" transform="translate(-97.88 -161.44)"/>
    <path class="patterns" d="M1622.59,764.94c.15-2.8.21-4,.29-5.29-1.14.21-2.29.38-3.42.64-3.35.77-6.13,2.12-8,5.45-.52.89-3.32.77-5.07.74-.41,0-1.22-2.12-1.16-2.19,3.35-2.11,1.31-5.53,2.11-8.23,1.19-3.91,8.33-9.78,12.39-9.28a58.21,58.21,0,0,1,8.47,1.68c3.91,1.06,5.59,5.42,3.06,8.4C1628.94,759.64,1626,761.93,1622.59,764.94Zm.78-11.55-1.14-1.45c-1.87,1.31-3.78,2.6-5.59,4a1.48,1.48,0,0,0,.21,1.39c.56.37,1.66.8,2,.54,1.62-1.43,3.06-3,4.57-4.52Z" transform="translate(-97.88 -161.44)"/>
    <path class="patterns" d="M1801.45,447.65a14.25,14.25,0,0,1,3.72,1.76c2.85,2.55,4.9,13.06,3.45,16.57-2.39,5.77-8.6,6.95-11.9,1.77-2.67-4.23-4.33-9.17-2.67-14.59C1795.18,449.37,1798.27,448.87,1801.45,447.65Z" transform="translate(-97.88 -161.44)"/>
    <path class="patterns" d="M1791.1,555.18c-2.12-5.85,3.82-7.33,7.12-10.41.38-.37,2.38.17,2.77.81,2.12,3.43,3.89,7,5.83,10.58,1.48,2.67,1,4.07-2.29,4.4-3,.29-5.93,1-8.89,1.58-4.77.94-5.29.5-4.83-4.24C1790.88,557.18,1791,556.52,1791.1,555.18Z" transform="translate(-97.88 -161.44)"/>
    <path class="patterns" d="M1726.69,521.06a6.35,6.35,0,0,1-6.54-6.15v0a2.29,2.29,0,0,1,0-.37c-.06-3.55,4-7.92,8.16-8.8,3.18-.68,8.72,2,10,4.91.78,1.74-1.77,7-4.44,8.19A56,56,0,0,1,1726.69,521.06Z" transform="translate(-97.88 -161.44)"/>
    <path class="patterns" d="M1604.26,388.77c5.49-4.65,14.29-5.21,19.64-1.61,1.78,1.19,1.93,5.87.27,7.83-.19.19-.39.37-.59.54-5.92,5.62-6.3,5.61-12.23-.09Z" transform="translate(-97.88 -161.44)"/>
    <path class="patterns" d="M1745.55,374.21c6.89,2,13.33,4,17.21,10.14a3.52,3.52,0,0,1-.27,3.4,5.71,5.71,0,0,1-4,1.65,56.06,56.06,0,0,1-9.17-1.78,3.55,3.55,0,0,1-2.29-2C1746.39,382.16,1746.1,378.64,1745.55,374.21Z" transform="translate(-97.88 -161.44)"/>
    <path class="patterns" d="M1595.25,461.45l8.19,10.59c-2.23,1.18-4.24,2.67-6.5,3.35-3.87,1.18-6.66-2.35-5.2-6.54A74.67,74.67,0,0,1,1595.25,461.45Z" transform="translate(-97.88 -161.44)"/>
    <path class="patterns" d="M1573.83,408.49a66.19,66.19,0,0,1-.77-6.74c0-1.31.12-3.18.94-3.84,1.71-1.37,3.92-2.11,5.92-3.1.34,1.9,1.06,3.82.94,5.7C1580.44,407.23,1580.32,407.23,1573.83,408.49Z" transform="translate(-97.88 -161.44)"/>
    <path class="patterns" d="M1826.07,616.77c3.56,3.71,1.52,6.49.32,9.89L1808,618h10c1.48,1.06,3.07,3.06,4.43,2.9S1824.74,618.37,1826.07,616.77Z" transform="translate(-97.88 -161.44)"/>
    <path class="patterns" d="M1716.57,489.05c2.87,4.32-.37,6.66-2.78,9a7.23,7.23,0,0,1-9.78.8Z" transform="translate(-97.88 -161.44)"/>
    <path class="patterns" d="M1666,451l-4.37-4.44c1.77-1.48,3.37-3.4,5.39-4.17.66-.25,3.11,2.39,3.56,4C1671.25,448.65,1669.27,450.24,1666,451Z" transform="translate(-97.88 -161.44)"/>
    <path class="patterns" d="M1736.39,497.1c1.62-1.14,3.26-3.17,4.86-3.17,1.27,0,3.55,2.58,3.47,4s-2.28,3.36-3.85,3.68C1738.92,502,1736.66,501,1736.39,497.1Z" transform="translate(-97.88 -161.44)"/>
    <path class="patterns" d="M1496.51,526.44l3.07-3c1.17,1.66,2.66,3.18,3.35,5,.24.62-1.5,2.76-2.47,2.87C1498.37,531.55,1496.22,530.9,1496.51,526.44Z" transform="translate(-97.88 -161.44)"/>
    <path class="patterns" d="M1755.4,663.89l-5.77-3.88c1.67-1.28,3.17-2.86,5.1-3.63.45-.18,2.4,2.17,2.88,3.62C1757.86,660.8,1756.46,662.12,1755.4,663.89Z" transform="translate(-97.88 -161.44)"/>
    <path class="patterns" d="M1525.78,457.27v-24.4h.84v24.4Z" transform="translate(-97.88 -161.44)"/>
    <path class="patterns" d="M1740.22,487.46c-2,1.66-5.82.74-2,5.44l-2.38-.42c-1.39-1.48-3.49-2.79-3.88-4.45-.26-1.06,2.11-4,3.17-3.9C1736.77,484.17,1738.32,486.09,1740.22,487.46Z" transform="translate(-97.88 -161.44)"/>
    <path class="patterns" d="M1506.47,502.92c2.74-1.69,1.06-6.85,5.51-5,1.18.48,2.19,4.62,1.39,6C1511.52,507.19,1509.54,503.82,1506.47,502.92Z" transform="translate(-97.88 -161.44)"/>
    <path class="patterns" d="M1826.3,480.64l-9.37-.95-.64-1c1.46-1.15,2.77-2.93,4.45-3.34C1823.12,474.77,1825.31,477.11,1826.3,480.64Z" transform="translate(-97.88 -161.44)"/>
    <path class="patterns" d="M1525,701.46a78.08,78.08,0,0,1,.11-8.24c.07-.63,1.64-1.06,2.52-1.63.51,1.28,1.67,2.72,1.4,3.81a27.52,27.52,0,0,1-2.8,5.84Z" transform="translate(-97.88 -161.44)"/>
    <path class="patterns" d="M1557.05,446.9c.55-2.39-.83-6.35,3.74-5.59.89.14,2.12,3.51,1.62,4.82-.42,1.12-3,1.45-4.66,2.12Z" transform="translate(-97.88 -161.44)"/>
    <path class="patterns" d="M1580.77,665.38l2.41-5.44,3.87,2.76-4.75,3.79Z" transform="translate(-97.88 -161.44)"/>
    <path class="patterns" d="M1619.72,690.88l1.39-5.49,4.63,2.94-4.24,3.56Z" transform="translate(-97.88 -161.44)"/>
    <path class="patterns" d="M1732.77,479.85l-6,1.52c-1-2.93-.14-5,2.34-5.44,1.28-.2,2.85,1.52,4.3,2.37C1733.17,478.82,1733,479.34,1732.77,479.85Z" transform="translate(-97.88 -161.44)"/>
    <path class="patterns" d="M1629.29,694.32c2.89-2.24,4.73-.75,6.15,1.28a2.69,2.69,0,0,1-.73,2.51C1631.48,699.35,1630.38,697.15,1629.29,694.32Z" transform="translate(-97.88 -161.44)"/>
    <path class="patterns" d="M1498,672c1.36.16,2.84,0,4,.58s1.66,1.71,2.47,2.61c-1.21.4-2.67,1.43-3.56,1.06-1.39-.57-2.4-2.12-3.54-3.18Z" transform="translate(-97.88 -161.44)"/>
    <path class="patterns" d="M1572.28,447.65c1.77.05,4-2.48,4.76,1.19.19,1-.69,3-1.28,3.12C1572.87,452.36,1572.07,450.46,1572.28,447.65Z" transform="translate(-97.88 -161.44)"/>
    <path class="patterns" d="M1569.28,434.54l3.77-1.78,1.34,5.6C1569.66,440.93,1570.94,436.15,1569.28,434.54Z" transform="translate(-97.88 -161.44)"/>
    <path class="patterns" d="M1761.76,691.14q-1.77-3.74-3.6-7.41l1.06-.89a44.67,44.67,0,0,1,4.53,5.19c.38.59-.58,2-.89,3.11Z" transform="translate(-97.88 -161.44)"/>
    <path class="patterns" d="M1509.54,691.2c1,1.39,2.22,2.37,2.12,3.09-.18,1-1.78,2.53-2.12,2.37-1.16-.46-2-1.65-3-2.55Z" transform="translate(-97.88 -161.44)"/>
    <path class="patterns" d="M1581.19,423.82a33.49,33.49,0,0,1,1.06,4.05,9.53,9.53,0,0,1-.24,3.28c0,.19-1.94.3-2.07,0a7.17,7.17,0,0,1-.89-3.62C1579.12,426.53,1580.09,425.62,1581.19,423.82Z" transform="translate(-97.88 -161.44)"/>
    <path class="patterns" d="M1648.16,701.93l-2.35-5.09c1.22-.15,3.37-.68,3.48-.38a23.08,23.08,0,0,1,1,4.88Z" transform="translate(-97.88 -161.44)"/>
    <path class="patterns" d="M1754.17,506.13c-1.3,1.62-2.58,3.27-4.45,5.56l-2-4.43,5.9-1.78Z" transform="translate(-97.88 -161.44)"/>
    <path class="patterns" d="M1785.61,565.29l-6.11,2.17-1-1.2c1.06-1,1.85-2.54,3.06-3s2.67.36,4,.6C1785.57,564.35,1785.58,564.82,1785.61,565.29Z" transform="translate(-97.88 -161.44)"/>
    <path class="patterns" d="M1836,613.78l5.29,1.06c-1.06.72-1.91,1.86-2.59,1.73a12.38,12.38,0,0,1-3.56-1.78Z" transform="translate(-97.88 -161.44)"/>
    <path class="patterns" d="M1622.88,753.35c-1.51,1.51-3,3.1-4.56,4.49-.3.25-1.4-.18-2-.54a1.52,1.52,0,0,1-.2-1.4c1.78-1.4,3.72-2.67,5.59-4Z" transform="translate(-97.88 -161.44)"/>
    <path class="patterns" d="M1624.4,592.44a24.65,24.65,0,0,1-2.22-3.56c-.58-1.2-.49-2.72-1.06-3.92-1-2.11-2.28-4.11-3.74-6.68.94-3,3.93-4.23,7.12-3.39,1.19.32,1.67,3.38,2.55,5.3,2.92-2.35,6.46-3.74,10.12,1.37a75.88,75.88,0,0,0,2.86-7.71,3.24,3.24,0,0,0-1.48-2.66c-7.41-3.64-8.28-9.77-1.21-13.86,5.4-3.11,11.05-6.56,17.84-6.47s11.65,3.65,15.73,8.47c2.6,3.09-1.15,3.7-2.81,5.29,1.49,3.33,2.94,6.62,4.66,10.45,1.28-1.16,2.26-2.11,3.3-3,2.25-1.9,4.45-1.28,5.65.93a28.66,28.66,0,0,1,2.56,7.64c.6,2.91-5.3,14.52-8.11,15.37-2.12.63-5.3.89-6.83-.33-2-1.63-2.48-4.63-.62-7.41,3.18-4.76,3.18-9.64.89-15-2.53-6.22-8.25-9.77-15.62-8-8.15,2-17.69,12.44-12.7,23.64,2.94,6.62,8.47,8.14,14.64,8.89,2.61.29,5.3-.12,7.85.53,1.6.41,3.78,2,4,3.36.35,2,0,5.39-1.41,6.36-10.39,7.34-24.27,8.62-33.7-2.47-.51-.59-.74-1.58-1.37-1.9a7.27,7.27,0,0,0-3.79-1.16c-2,.23-6.69-1.77-6.35-3.55C1621.5,596.92,1623,595.12,1624.4,592.44Z" transform="translate(-97.88 -161.44)"/>
    <path class="patterns" d="M1671.9,627.6c-3.84,1.57-4,1.55-13.24-2.57.1-3.69,1.7-6.11,5.54-6.79,4.45-.78,5.78.35,6.13,4.91C1670.44,624.59,1671.25,626,1671.9,627.6Z" transform="translate(-97.88 -161.44)"/>
    <path class="patterns" d="M1661.81,582.34c-2.35-6.67-5.29-9.42-8.88-8.89-2.55.38-5.68,4-5.84,6.74-.25,4.18,2.35,6.85,8.38,8.56a6.94,6.94,0,0,1-9.39-2.89l-.14-.28c-1.41-2.55-4.13-5.79-1.06-8.59,4-3.67,9.71-6.8,13.7-3.76C1661.42,575.42,1662.74,577.92,1661.81,582.34Z" transform="translate(-97.88 -161.44)"/>
    <path class="patterns" d="M1631.66,617.83c2.67.12,5.3.76,4.58,3.65a8.47,8.47,0,0,1-4.24,5.3c-2.47,1-6.21-2.35-6.13-4.77C1626,617.93,1629.41,618.47,1631.66,617.83Z" transform="translate(-97.88 -161.44)"/>
    <path class="patterns" d="M1634.4,539.52c3.27-.37,3.33,2,3.43,4.09.12,2.77-1.68,5.09-4.06,4.71-1.86-.3-4.5-2.78-4.73-4.56C1628.6,540.58,1631.77,539.91,1634.4,539.52Z" transform="translate(-97.88 -161.44)"/>
    <path class="patterns" d="M1689.34,604.43c.18,3.18-1.56,5.53-4.44,5.1-1.78-.27-4.45-3-4.56-4.72-.22-2.85,2.75-3.64,5.41-3.8C1688.18,600.88,1689.58,601.78,1689.34,604.43Z" transform="translate(-97.88 -161.44)"/>
    <path class="patterns" d="M1659.43,540.52l-5.3,5c-1.38-1.52-3.7-2.91-4-4.58-.39-2.82,2.12-4.24,4.74-3.85C1656.16,537.21,1657.27,538.8,1659.43,540.52Z" transform="translate(-97.88 -161.44)"/>
    <path class="patterns" d="M1631.27,563.19c-2.28,2.28-3.83,4.86-4.93,4.68-2-.34-5-2.18-5.16-3.63-.28-3.06,2.76-3.86,5.39-3.6C1627.86,560.76,1629,561.9,1631.27,563.19Z" transform="translate(-97.88 -161.44)"/>
    <path class="patterns" d="M1698.07,580.46c-1.51,1.32-2.94,3.47-4.59,3.67-1.15.13-3.44-2.29-3.72-3.84-.34-1.94.89-4.36,3.74-3.83,1.57.3,3,1.44,4.44,2.19Z" transform="translate(-97.88 -161.44)"/>
    <path class="patterns" d="M1693.15,558.64c-2.53,1.9-4,3.89-5.5,3.87s-3.94-2-4-3.3c-.16-2.76,2.38-4,4.91-3.8C1689.75,555.52,1690.81,557,1693.15,558.64Z" transform="translate(-97.88 -161.44)"/>
    <path class="patterns" d="M1678.93,544.38c-1.49,2-3,4.29-5.87,2-.59-.47-.6-1.65-.89-2.51l6.48-1.06C1678.76,543.31,1678.86,543.82,1678.93,544.38Z" transform="translate(-97.88 -161.44)"/>
  </g>
  <g>
    <path class="patterns" d="M598.43,525.18c-5.9-7.74-11.38-15.16-17.06-22.44-5.33-6.82-7-7-14.35-2.16-1.63-4.09-4.22-3-6.06-.52-2.82,3.79-5.18,7.93-7.64,12-.6,1-.66,2.29-1.28,3.23-1.9,3-3.32,7.2-6.12,8.49-2.35,1.09-6.48-1-9.65-2.1-13.56-4.89-27-10-40.59-14.88a109.22,109.22,0,0,0-41.41-7.08,49,49,0,0,1-37-13.88c-7.82-7.51-18-12.71-26.92-19.17-5.73-4.09-11.17-8.65-16.66-13.11-4.48-3.65-4.64-8.56-4.72-13.89-.33-19.95-1.17-39.93-1.82-59.88-.25-7.74-.62-15.49-.93-23.18a12.88,12.88,0,0,0,0-3c-3.27-12.27.78-23.81,3.42-35.45A37.54,37.54,0,0,1,375.16,305c10.61-15.17,21.35-30.1,28.44-47.27,5.62-13.63,16.52-22.11,29.73-28.74,14.42-7.26,28.13-15.59,39.28-27.47,7.8-8.29,18.51-12.58,29.54-15.35,6.23-1.54,12.83-1.61,19.17-2.73q11.55-2,22.93-4.93c18.65-4.71,37.54-5.77,56-.74,11.92,3.23,22.9,9.55,34.62,13.64,8.65,3,17.86,4.44,26.72,7,7.34,2.12,15,4.09,21.61,7.5,5.51,2.89,10.12,7.65,14.55,12.1s9.44,9.37,12.4,14.87a42.26,42.26,0,0,1,4.62,17.43c.57,11.61,1,23.18,6,33.86,4.91,10.47,10.35,20.7,15.47,31.05,3,5.94,6.25,11.78,8.67,17.94a27.82,27.82,0,0,1,.22,19,224.18,224.18,0,0,0-7,28.16,45.93,45.93,0,0,1-14.29,26.53,115.3,115.3,0,0,0-27.22,39.38c-3.63,8.47-9.65,16-14.89,23.76-7.56,11.17-15.07,22.28-25.77,31.21-14.77,12.27-30,22.8-50.57,22.73a18.62,18.62,0,0,0-3.65.39A31.17,31.17,0,0,0,598.43,525.18ZM560.32,241.36c-11.47-.34-22.63.64-33.27,5.55A227.65,227.65,0,0,1,497.85,258c-12.09,3.68-22.3,9-29.2,20-3.46,5.45-9.15,9.65-13.67,14.56a12.75,12.75,0,0,0-3,5c-2.36,8.5-4,17.24-6.95,25.56C440.38,336.22,434.83,349,429.77,362c-2.46,6.3-3.8,12.78-1.69,19.45a99.36,99.36,0,0,0,41.43,53.94c7.65,5,15.73,9.55,23.37,14.57,9.2,6.12,17.78,12.9,29.26,15.23,16.71,3.35,33.25,6.27,50.34,2.47,10.62-2.3,21.32-3.89,31.85-6.17,8-1.73,16-4.09,22.13-9.73s11.46-12.41,17.88-17.87c14.16-12.11,19.69-28.48,24.51-45.23,2.6-9.15,4.4-18.46,6.12-27.79,1-5.62,2.36-11.56,1.52-17a183.38,183.38,0,0,0-7.15-27c-4.57-14.16-8-28.79-17-41.2-1.5-2.07-3.54-3.84-4.72-6-4.45-8-9.61-15.26-19.15-18.31-2.08-.69-3.82-2.29-5.76-3.44-3.3-1.88-6.46-4.88-10-5.39a307.11,307.11,0,0,0-33.18-3.06c-6.38-.22-12.82,1.28-19.22,2Zm169.83,86.06c-11.59,9.28-23.28,14.21-35.77,14.86-1.72,11.92-3.32,23.32-4.81,33.74,10.1,3.35,20.44,6.35,30.4,10.29,9.73,3.81,11.61,3,12.91-7.53,0-.51.11-1,.12-1.52.17-11.36.64-22.73.36-34.09-.17-4.78-1.9-9.55-3.24-15.82ZM520.58,194.8c-18.58-5.37-38.29,1.36-43,13.33,5.63,5,11.6,9.07,15.58,14.53A25,25,0,0,1,497,243.11l32.83-12.93c-8.87-11-11.59-22.5-9.33-35.38Zm133.8,55.76c4.08,5.73,8.33,11.17,12.11,17,2,3.09,3.63,2.63,6.24.86,7.92-5.38,16.17-10.18,26.14-11,2.81-.23,3.3-1.5,3.39-3.95.31-9.16-3.55-16.66-9.85-23.18-2.19-2.28-4.72-4.2-7.47-6.66-5.88,14.23-16.62,22.18-30.63,26.91Zm-43.07-26.13,26.5,11.7c.62-15.59,10-25.36,23.53-32.48l-40.79-11.24c.24,11.64-.28,23.43-9.31,32ZM410,279.87l-18.41,30.46c12,5.17,26.73,2.6,38.37,12.49,2.93-9.2,5.63-17.73,8.44-26.74-12.48-1.64-21.18-7.44-28.44-16.19ZM380.36,384c6.35,10.91,9.71,22.31,9.19,33.85,6.19-2.43,11.68-5.63,17.56-6.59s12.35.29,19.26.6C423.15,404,420,396,416.52,388.19a5.17,5.17,0,0,0-4.54-1.93,55.55,55.55,0,0,1-31.62-2.17ZM580.48,225.61c-3.16-15-4.11-28.49,4.22-42.34l-28.33,4.19c1.18,7.5,3.42,14.08,2.82,20.45s-4.22,12.27-6.84,19.38ZM398.5,443.9l-.87,1.26,27.63,23.19c2.81-7,4.22-13.45,7.87-18.41s9.2-8.18,14.07-12.28l-9.85-9.08C426.83,440.24,413.78,444.74,398.5,443.9Zm211.71,67.25c-9.5-11.58-10.67-23.34-5.4-36.22l-34.51,5.93c1.91.86,3.71.39,5.48.52,1.18.08,3.2,1,3.24,1.58.64,9.94,7.79,17.1,11.55,25.69.73,1.7,2.51,4.18,3.82,4.18C599.07,512.81,603.83,511.91,610.21,511.15ZM453.88,270.55l16.44-16.7-12.22-20.1-26.5,17.39C442.09,255,450.6,259.66,453.88,270.55Zm80.38,238.56,1.76-.81c-3.88-9.55-1-17.53,6.17-25.28l-26-5.21c-2.49,6.51-5,12.65-7,18.91-.37,1.15.36,3.57,1.18,3.89,7.92,3.08,16,5.72,23.91,8.5ZM632,465.88c4.92,7.05,9.84,14.11,15,21.58,6.34-5.85,14.71-10.48,18.71-20.29-8.19-2.72-11.8-9.32-14.17-17.15ZM457.77,481c5.73,1.53,10,2.81,14.39,3.71a4.84,4.84,0,0,0,3.55-1.36,162.67,162.67,0,0,0,11.91-12.59c1.18-1.36,1.68-5.14.77-5.89-4.9-4.09-10.35-7.59-16.52-12A36.82,36.82,0,0,1,457.77,481ZM383.9,340.45c-.7,5.29-1.54,11.63-2.43,18.17a43.67,43.67,0,0,1,5.63-2.29c5.76-1.52,11.15-3.7,17.71-1.71,13.82,4.24,11.16,3.74,14.55-7.32Zm318.49,88.12L675,420.87l-5.91,9.69c.78.66,1.41,1.79,2.28,1.87a31.78,31.78,0,0,1,18.12,8.4,4,4,0,0,0,3.81-.45c3.32-3.87,6.3-8,9.13-11.73Zm7.15-140.75L682.1,301c.54,1.61,1.41,4.27,2.48,7.62,10.38-5.45,20.83-7.91,32.57-6.49ZM685.73,400.11l3.36-6.55c1.18.48,2.45,1,3.69,1.45,2.36.8,4.72,2.28,6.93,2.19,3.66-.24,5.15.65,4.46,3.52l8.76,3.44c.26-1.36.55-3.15,1-5.55-2.28,0-5.15.67-5.63-.11-3.68-5.62-10.15-4.85-15.34-6.57-7.16-2.28-9.37.07-7.16,8.18ZM554.92,494.42l.66.46a9.62,9.62,0,0,0,1.68-2.37,35.66,35.66,0,0,0,1-4.43c-1.74,0-4-.7-5.1.12a60.36,60.36,0,0,0-9.27,8.58c-1,1.07-.45,3.32-.69,5.9L554.25,489l1.41.56ZM428.56,278.14l1.18-.81c-.81-1.14-1.63-2.29-2.49-3.35-1.4-1.87-4-3.64-4.22-5.62s2-4.09,3.21-6.1a13.06,13.06,0,0,0-6.76,4.58c-.57.78.95,3.44,2.09,4.72A94.55,94.55,0,0,0,428.56,278.14Zm288,40.4v-1.36l-13.87-1.53c-.09.69-.16,1.36-.23,2.07,1.78.26,4.52-.08,5.15.87,3.48,5.38,6,.54,9-.09ZM597.43,221.72c-3.4-7.92-5.16-16.09-3.88-24.73C592,205.6,590.44,214.21,597.43,221.72ZM458.58,452.08l-6.19,12.65A14.38,14.38,0,0,0,458.65,448l-6.22,2.29ZM443,285.29a3.31,3.31,0,0,0,1.12-.91c2.09-3.44-1.58-10.91-6.11-13.38C439.56,275.37,441.22,280.1,443,285.29ZM412.15,427.7l.73,1.14,9.23-5.11-.38-1.09-6.94-1.24-.25.69,3.3,2.18ZM477,228.94l-7.14-6.28C467.62,230.26,473.8,227.91,477,228.94Z" transform="translate(-97.88 -161.44)"/>
    <path class="patterns" d="M756,379.41a88.28,88.28,0,0,1-26,46.36c-4.06,3.86-7.21,8.64-10.7,13.05a31.2,31.2,0,0,0-2.29,3.74l-1.62-1.49a32.59,32.59,0,0,1,2.1-3c6.54-7.49,13.32-14.78,19.69-22.45,11.15-13.5,15.57-29.68,18.8-46.27" transform="translate(-97.88 -161.44)"/>
    <path class="patterns" d="M748.11,303.74c-2.35-4.3-5.13-8.45-7.74-12.68l2.2-1.14q6.82,12.36,13.61,24.73a14.38,14.38,0,0,0,1.19,2.73" transform="translate(-97.88 -161.44)"/>
    <path class="patterns" d="M526.17,164.72c-1.18,1.15-2.18,3.17-3.43,3.29-11.25,1.06-22.42,1.8-32.76,7.1,6.63-4.17,13.48-7.25,21.58-7.65,4.91-.24,9.75-1.77,14.66-2.72Z" transform="translate(-97.88 -161.44)"/>
    <path class="patterns" d="M698.64,200c-4.22-2.15-8.44-4.43-12.66-6.39s-8.58-3.53-12.65-5.2C677.7,187.25,694.82,194.23,698.64,200Z" transform="translate(-97.88 -161.44)"/>
    <path class="patterns" d="M737,284.44q-3.71-11.55-7.47-23.19l2.06-.58q3.33,11.64,6.66,23.32Z" transform="translate(-97.88 -161.44)"/>
    <path class="patterns" d="M551,162c-6.41,1.06-12.83,2.18-19.24,3.11a30.07,30.07,0,0,1-5.53-.19h0c8.09-2.17,16.18-4.58,24.79-2.92Z" transform="translate(-97.88 -161.44)"/>
    <path class="patterns" d="M554.94,494.42l.79-4.92-1.41-.56-11.1,13.73c.24-2.58-.27-4.84.69-5.91a60.43,60.43,0,0,1,9.27-8.59c1.08-.8,3.36-.12,5.11-.12a37.93,37.93,0,0,1-1,4.45,10.21,10.21,0,0,1-1.67,2.36Z" transform="translate(-97.88 -161.44)"/>
    <path class="patterns" d="M558.82,458.31c-11.91.38-20.23-4.76-27.44-11.66-3.69-3.54-8.64-6.26-11.58-9.54-7.8-8.8-19.59-7.49-28.32-13.15a66.56,66.56,0,0,0-9.57-5c-2.67-1.15-5.39-5.46-8.44-.46-2-1.56-5.72-3.21-5.62-4.59.28-5-3.72-8-4.9-12.27-2.6-9.44-6.13-18.63-9.3-27.91-1.68-5-3.54-9.9-5.06-15a22,22,0,0,1,3.84-20.61,48.68,48.68,0,0,0,6.77-15c3.39-11.34,4.83-23.38,9.52-34.09S483,270.89,495.1,267.36c2.11-.61,3.93-2.29,6-2.86,4.05-1,8.64-3,12.3-2.05a26.64,26.64,0,0,0,18.28-1.73c9.44-4.09,18.69-8.41,28.26-12.13a129.84,129.84,0,0,1,17.11-4.86c9-2.17,16.19,3.1,23.92,6.06a188.22,188.22,0,0,1,19.91,8.56c4.29,2.29,9,5.06,11.56,8.85a143,143,0,0,1,20.65,46.91c1.3,5.36,4,10.44,6.44,15.49,5.78,12,4.73,23.38-1.7,35.06-5.71,10.37-9.24,21.95-15.47,32C634.15,410,624.12,422.56,609.62,430a172.72,172.72,0,0,0-30.24,20.46C573.43,455.35,566,458.39,558.82,458.31Zm27.84-43.5c1.4-.53,2.37-2,3.56-3,4.54-3.46,8.94-7.13,13.71-10.25,7.92-5.17,12.5-12.36,15.71-21.55-7.72,3.57-9.09,3.14-10.69-2.52l5.63-2.38c3,4,5.09,4.35,7.75.35a233,233,0,0,0,13.12-22c2.81-5.58,1.18-10.74-1.93-12.77.14-2.57.79-4.74.26-6.58-1.41-4.9-3.37-9.67-5.18-14.47-2.28-6.08-4.75-12.11-7-18.22-2.16-5.89-3.68-12.05-6.36-17.73-3.29-6.91-7.75-13.14-17.06-13.07-7.48,0-15-.36-22.4.12-9.71.61-19.37,1.87-29.69,2.92,7.8,4.53,15.73,1.93,23.2,3.86,9.51,2.44,16.57,8.7,25.07,12.56a53.52,53.52,0,0,0,6.72,2l1-1.61c3.29,7.58,7.47,15,9.62,22.84,2.38,8.85,3.21,18.17,4.29,27.34,1.41,11.51-.51,22.35-8.16,31.91-6.85,8.56-13.26,17.44-19.69,26.25a3.41,3.41,0,0,0-.49,3.07,4.55,4.55,0,0,0,3,1.5,14.11,14.11,0,0,0,3.66-.63c-.93,4.21-3,5.46-6.85,5.16a15.35,15.35,0,0,0-6.08.94,77.82,77.82,0,0,0-7.3,3.23l-1.53-2.25,4.92-1.88-1.18-2.06-23.16,7-.07.94h17.18c-.22,2.3-.32,3.73-.5,5.15-.76,5.91-4.22,7.58-9.76,5.27-1.78-.75-4.07-.3-6.12-.4v1.36l5.31,3.55-.59,1.43c-3.23,0-7,1-9.62-.23-4.13-1.94-7.51-5.37-11.67-8.52-1.76,4.7-4.32,2-7.2.38-1.49-.85-3.55-.81-5.38-1.2v0c1.6-5.9,3.64-6.59,9.35-3.69q6.43,3.24,13.18,5.84c1.18.48,2.91-.23,4.39-.4-1.32-1.29-2.69-3.75-4-3.69-4.61.19-5.52-1.88-4.44-5.66-10.58,1-12.1.48-13.07-3.93l7.26.73c0-.73.1-1.45.16-2.16l-13.16-1.36,3.23-2-13-1.28c-.31.71-1,2.21-1.61,3.56l7,7.43c-8,2.82-26.43-6.55-26.26-14.05a35.5,35.5,0,0,1,4.05,1.07,10.8,10.8,0,0,1,2.59,1.69c5.21,4.21,7.68,3.6,13.72-3.59-6-5.66-15.62-8.06-18.44-16.5-2.56-7.7-3.46-15.91-5.1-23.89l-1.51.21c.27,3.6.73,7.18.78,10.78,0,3.29-.27,7.35-4.76,6.92-1.4-.13-2.44-4.75-3.26-7.42-1.62-5.25-3-10.57-4.42-15.88l-1.76.22c-2.2,5.58-7.62,9.86-6.16,16.94.68,3.33,1.1,6.2,5.71,5.15.37-.08.85.37,2,.89l-4.22,1.62c1.18,4,2.9,7.83,3.26,11.81.89,9.81,6.64,15.34,15.6,18.57l4.42,1.72,28.56,10.23c3.28,1.81,6.52,3.71,9.85,5.45s6.72,2.92,9.85,4.71c4.85,2.73,14.58,3.35,18.28.63M546.7,384.2c2.61-.89,6.92-1,8.14-3,6.34-10.19,17.4-13.73,27.15-18.89a18.6,18.6,0,0,0,9.43-11.53c4.87-18.63,2.82-36-14.06-48.85-8.15-6.23-17.78-11-28.13-8.9-14.7,3-27.39,11.11-39.27,19.73-9.26,6.72-13.79,22.05-10.62,30,3.88,9.72,7.93,19.38,11.25,29.29a9.74,9.74,0,0,0,7.5,6.82c3.53.92,7.27.73,10.87,1.36,5.72,1.05,11.42,2.41,17.75,3.79Zm-4.8-112.8c.07.23.15.45.24.67,10.51-1.24,21.24-1.67,31.45-4a61.88,61.88,0,0,1,25.78-.49c8.07,1.54,14.16,5.16,17.22,12.45,3.68,8.91,6.56,18.14,9.84,27.21,3.67,10,7.32,20.09,11.25,30.06,4.11,10.53,1.52,19.76-4.72,28.75a136.29,136.29,0,0,0-11,18.5c-4.54,9.37-10,17.58-19.52,23.18-8.28,4.74-15.85,10.63-23.75,16a4.12,4.12,0,0,0-.4.33l-15,12.64c4,.34,7.93.57,11.52-4.64a29.73,29.73,0,0,1,15-11.23c17.32-6,28.67-18.94,37.34-33.87,6.54-11.3,11.18-23.64,17.2-35.24,3.35-6.46,2.62-12.4-.08-18.57-2.52-5.72-5.24-11.44-7.61-17.24C632,304.3,627.68,292.51,622.66,281a34.87,34.87,0,0,0-8.35-11.83c-3.21-2.84-7.95-4.09-12-6C592.7,258.74,583,257.93,573,262c-5,2-10.25,3.16-15.35,4.72Zm-3.31,4.94c-.12-.47-.21-1-.31-1.44-6.15.63-12.3,1.13-18.41,1.91-4.22.49-8.27,1.78-12.41,1.77-16.56,0-30,13.06-29.95,29.11v0a28,28,0,0,0,.17,3c.45,4.48-1.18,9.21-2.25,13.73-.84,3.71-2.16,7.29-3.33,11.08h2.35c-.7,3.44-1.41,6.74-2.27,11.21l2.52-2.21,11,5.46a21.67,21.67,0,0,0-.28-4.69c-2.27-7.18-4.22-14.06.29-21.4,4.22-6.82,6.65-14.67,11.25-21.18A63.29,63.29,0,0,1,523.83,281c4.73-1.95,9.85-3.1,14.73-4.62Z" transform="translate(-97.88 -161.44)"/>
    <path class="patterns" d="M663.23,359.94l8.37,3.34-.54,1.72-8.82-2.22Z" transform="translate(-97.88 -161.44)"/>
    <path class="patterns" d="M547.34,358.14c-11.25.15-18.28-5.36-21.43-14.88-2.37-6.82.36-13.36,7-18.61a29.08,29.08,0,0,1,17.1-6.33c13-.8,26.73,15.48,18.48,28.64a19.76,19.76,0,0,1-8.1,7.37C555.6,356.57,550.13,357.39,547.34,358.14Zm3.79-5.86c9.66-4.59,16.26-13.23,15.47-19.1-.52-3.91-7.23-9.73-14.07-11.29C563.26,332.46,559.57,341.93,551.13,352.28Z" transform="translate(-97.88 -161.44)"/>
    <path class="patterns" d="M602.23,280.86l-7.91-5.22.46-1.79c2.48.55,5.21.66,7.35,1.8,1.18.62,1.26,3,1.85,4.59Z" transform="translate(-97.88 -161.44)"/>
    <path class="patterns" d="M483.92,317.9c-.94-.46-1.78-.61-2.08-1.07-2.24-3.49-1.41-16,1.74-18.7.95-.83,3.55-.24,5.27.23a14.3,14.3,0,0,1,3.54,2.46l.94-1c-.72-1.07-1.4-2.14-2.66-3.91l5.32.75,2.81-6.61h6.6c-3.31,3.51-6.25,7.66-10.17,10.58-4.42,3.3-8.44,6.28-9,12.17C486.09,314.39,484.89,315.86,483.92,317.9Z" transform="translate(-97.88 -161.44)"/>
    <path class="patterns" d="M494.09,293.22h-7.52l-.13-.74,2.81-.72,2.11-6,1.92.37C493.56,288.38,493.8,290.62,494.09,293.22Z" transform="translate(-97.88 -161.44)"/>
  </g>
  <g>
    <path class="patterns" d="M439.8,752.36c-6.39-2.65-13-5-18.81-8.54-10.88-6.64-25.88-6.84-36.22.74a28,28,0,0,0-11.34,18.68,122.45,122.45,0,0,0-1,14.32c-.15,3.34-.6,6.35-2.65,9.32-5.38,7.86-10.42,16-15.65,24-2.22,3.36-4.59,6.62-6.95,10L343.73,819c-.37,1.85-.77,3.47-1.11,5.09-.19.89-.34,1.73-.52,2.59l-2.48-.56c-.74,3.77-5.86,8.76-9.61,9.19.8-4.93,1.51-9.88,2.51-14.79.2-1,1.77-2.55,2.31-2.39,3.54,1,4.65-2,6.26-3.65,5.13-5.3,7.38-11.88,5.38-19a74.24,74.24,0,0,0-6.86-16.19c-4.55-8.1-15.78-13.41-24.87-9.89-4.27,1.67-8.65,3.07-13,4.64-6.56,2.4-13.25,4.51-19.64,7.34-7,3.1-13.6,6.87-20,10.15-.64,1.31-1.26,2.52-2.21,4.41,3.53-1.08,6.93-1.82,10.09-3.12,5.51-2.27,10.77-5.1,16.85-5.74,3.8-.39,6.14,2.78,9.46,3.47.47.09.72,1.28,1.1,1.94a18.22,18.22,0,0,0,1,1.58c.81,1.15,1.65,2.29,2.47,3.44a6.76,6.76,0,0,1,2.23,2c.77,1.29.88,3.54,1.92,4,3.86,1.84,5,4.81,4.79,8.52,1.27.26,2.65.13,3.24.74,3.3,3.46,6.5,7,9.53,10.69,2.36,2.89,2.52,6.51.09,8-3.47,2.13-2.85,5.1-2.36,8.25a20.67,20.67,0,0,0,1.54-4.17,3.66,3.66,0,0,1,1.29-1.67c.27-.19,1.38.28,1.38.37-.24,1.77,2.23,3.82-.32,5.41-1.48.89-3,1.72-4.41,2.51l-2.11-2.73-.66.51a19.92,19.92,0,0,1,1.18,2.18c.33.88.49,1.83.93,3.53-2.83-1.86-3.41-.19-4.32,1.49a28.4,28.4,0,0,1-3.69,4.49c-.83,1-2.26,1.77-2.44,2.86a12.1,12.1,0,0,1-5.18,7.2l-7.51,9.4-4.84-4.67-.8.31c1.13,6.89-.88,12.37-7.74,16a6.36,6.36,0,0,0-2.59-.46c-1.24.17-2.91.64-3.53,1.57-7.13,11.16-14.26,22.37-21.21,33.69a145.91,145.91,0,0,1-20.79,26.19c-.71.7-1.89,1-3.84,1.91-.33-9.52-.8-18.05-.88-26.59-.09-5.67.37-11.35.73-17a15.91,15.91,0,0,1,1.08-4.76,37.86,37.86,0,0,1,2.59-4.66l-1.11-.5a7.5,7.5,0,0,1-.19,1.49,9.52,9.52,0,0,1-.73,1.42c-2.77-3.46-2.13-15,.36-16.58-.5-1.93-1-3.72-1.48-5.52L232,872c1.1,4.74,5.42,2.23,5.42,2.23v-8.09a15,15,0,0,1-2.55,1.17c-.66.13-2-.14-2.06-.48a53.58,53.58,0,0,1-1.61-8c-.6-5.6-1-11.15-1.44-16.73-.18-2.09-1.14-4.51-.41-6.19,1.29-2.88.6-5.58.51-8.33-.21-6.47-1-12.94-.89-19.44.17-8.68,1.26-17.31,1.49-26,.08-3.3,1.16-3.74,3.84-3.3,3.29.54,6.62,1,9.94,1.38,3.84.48,7.68.89,11.49,1.34a1.49,1.49,0,0,1,1.07.62c.83,2.06,1.53,1.36,2.65.17a7,7,0,0,1,3-1.38c1.35-.38,2.86-.34,4.13-.88a86.63,86.63,0,0,0,25-15.58c7.06-6.5,14.33-12.9,19-21.61a31,31,0,0,1,4.92-7c12-12.3,22.51-25.7,30.33-41.1,2.49-4.9,4.69-9.94,7-14.94,1-2.15.7-4.57-1.19-5.57-1.16-.62-3.36.45-5,1.09a5.42,5.42,0,0,0-2.08,2.06c-7.53,10.79-15.46,21.33-22.39,32.52-6.48,10.51-13,20.78-21.49,29.81-5.92,6.3-11.39,13-17.21,19.44a20,20,0,0,1-5.67,4.42c-2.65,1.28-5.62,1.77-8.33,2.85-7.57,3.09-15.27,4.68-23.47,3.33a95.85,95.85,0,0,0-11.71-1.11c-3.23-.12-4.76-1.19-4.48-4.69.24-2.85-.17-5.74-.12-8.59.05-2.69.32-5.39.52-8.45,3.59,1.19,6.55,2.89,9.51,3a36.46,36.46,0,0,0,20.47-5c7.12-4.29,14.13-8.77,21.12-13.32s14.31-8.68,20.61-14a45.73,45.73,0,0,0,14.54-22c2.88-9.86,7-19.14,13.78-27.19a28.22,28.22,0,0,0,4.88-8.16c3.18-8.52,6.51-17.06,8.83-25.83,2.65-10,1.33-19.78-3.53-29.1a37.6,37.6,0,0,1-3.73-10.75c-1.26-7.23-1.72-14.59-2.82-21.85-.42-2.65-1.77-5.08-2.65-7.62,2.46,9.54,4.59,19.08,4.55,29.47-5.43-6.4-30.18-50.71-33.41-59.84,5.15,3,9.71,5.81,13.44,9.95l7.88,8.77c-4.54-8-10.6-14.54-18.92-18.79-1.77-.88-3.77-1.7-5-3.13-3.75-4.53-7.23-9.33-10.72-14.14-5.64-7.68-11.07-15.56-16.91-23.09a23.88,23.88,0,0,0-7.34-5.83c-3.59-2-7.8-2.92-11.28-5.08-4.35-2.71-9.06-3-13.8-3.38-10.9-.8-20.92,2.87-30.92,6.51-6.41,2.34-12.76,4.85-19.26,6.85-10.6,3.25-20.06,8.69-26.51,17.42-6.29,8.51-14.45,14.82-21.7,22.16-4.75,4.81-10.4,8.71-15.4,13.25a43.65,43.65,0,0,0-5.13,6.42c7.95-7.86,18.06-13.31,24.92-22.45,1.51-2,4-3.35,6.58-4.53A16.61,16.61,0,0,1,151,528c-6.13,7.67-12.1,15.48-18.49,23-5.3,6.19-11.22,11.88-16.62,18-2.43,2.76-4.27,6.06-6.79,9.71.46-3.79.81-7.06,1.17-10.24-.88,3.44-1.92,6.86-2.65,10.33-2.1,9.42-3.72,19-6.25,28.27-2,7.49-3.79,14.87-3.34,22.68.21,3.6-.84,7.71.53,10.74a193,193,0,0,0,12.49,22.85c2.41,3.86,5.91,7.07,9.21,10.3,3.09,3,4.52,7.55,9.31,9,2,.65,3.46,2.93,5.18,4.42,6.57,5.82,13.36,11.41,19.61,17.53,4,3.9,6.79,8.91,10.68,12.9,4.28,4.42,9.19,8.15,13.75,12.13-5,1.29-10.09-.65-16-2.38a19.42,19.42,0,0,0,12.63,3.54,34.48,34.48,0,0,1,15.71,2.89,114.75,114.75,0,0,0,12.08,4.42c5.69,1.9,11.48,3.61,17.15,5.61a3.73,3.73,0,0,1,2,2.65c.32,5.9.28,11.84.57,17.78.13,2.73-1.13,3.69-3.53,3.36-3.34-.45-6.69-1.08-10-1.76-8.05-1.65-16.16-3.07-24.1-5.15-4.72-1.25-9.12-3.75-13.76-5.39-9.05-3.17-17.67-6.87-25.11-13.31a115.81,115.81,0,0,0-14.3-11c-10.3-6.54-17.17-15.74-22.38-26.51a27.67,27.67,0,0,0-3.85-6.47,5.17,5.17,0,0,0-4.34-1.28c-.89.22-1.54,2.35-1.77,3.71-.88,4.41.41,8.41,2.7,12.36,5,8.46,10.06,16.79,18,22.77,7,5.3,13.73,10.6,20.78,15.91s14.32,10.09,23,12.36c3.88,1,7.53,2.91,11.31,4.31,4.82,1.76,9.55,4.1,14.53,5,9.72,1.84,19.67,2.81,29.5,4.3.7.1,1.84,1.09,1.84,1.67,0,3.15-.37,6.3-.62,9.89l-4.86-1.33c1.68,1.38,3.17,2,3.53,3a28,28,0,0,1,1.31,6.45,103.53,103.53,0,0,1,1,10.69c0,1.29-1,2.65-1.58,3.86.29,3.53.6,7.28.88,11a32,32,0,0,1,.33,4.58c-.35,6-.69,12.11-1.33,18.13-.22,1.93-1.38,3.75-2,5.45l-3.35,2.22c.18.43.38.77.56,1.17a19.5,19.5,0,0,0,3.54-.88c1.71-.75,2.47-.15,2.8,1.48a12.68,12.68,0,0,1,.4,2.6c-.05,3.58.33,7.29-.5,10.69-.49,2-2.93,3.53.42,5.12.36.19.49,1.46.36,2.16-1,5.39.13,11.21-3.54,16.11,3.31,2.07,2.57,5.11,1.94,8.08v36.63c.91,1.17-.19,3.09-1.17,3.4a5.29,5.29,0,0,1-4.24-1c-1.48-1.17-2.46-3-3.7-4.58-1.89-2.37-2.73-2.29-4.21.32-1.85,3.33-.76,10.24,2.14,13.77,1.64,2,4.07,3.59,2.74,6.51a21.9,21.9,0,0,1,3.24,0c1.52.27,3,.88,4.48,1,1.77.16,2.72,1,2.43,2.73s-1.29,3.64-1.29,5.44c.06,3.37.65,6.74,1,10.12.07.7,0,1.42,0,3.26-3.91-2.05-6.95-4.65-10.35-5.24-5.95-1-7.69-4.78-9.39-9.72-3.06-9-8.19-17-14-24.44-3.31-4.24-6.63-8.53-12.37-10.39a26.65,26.65,0,0,0-19.23.69c-4.82,2-9.85,3.9-14,6.93-5,3.65-9.27,8.37-13.72,12.76-4.18,4.15-8.63,7.85-14.35,9.61-5,1.54-5,1.51-3.79,6.88a43.91,43.91,0,0,0,5.1-.66c2.72-.64,2.42,1.45,2.65,2.87h.52l2.44-1.81c.36,1,.28,1.37.07,1.72l-.21.36a8,8,0,0,1,2.51,1.32h0a8.81,8.81,0,0,1,4.09,1h0a4.45,4.45,0,0,1,.63.52h.17c.2.14.4.28.58.43h0c.19.16.37.33.54.49h0a11.17,11.17,0,0,1,1.29-.08l.57-.67c1.54.58,3.94,1.41,6.26,2.42a1,1,0,0,1,.35.45,9.44,9.44,0,0,1,2.17,1.16,22,22,0,0,1,2.26,1.83c3.72.29,7.26,1.2,11,1.86a7.25,7.25,0,0,1,3.66,1.81,7.35,7.35,0,0,1,2-.32h2.24a7.63,7.63,0,0,1,2.49-.51l.86.08a10.16,10.16,0,0,1,1.23-.08,7.64,7.64,0,0,1,5.3,1.93,7.07,7.07,0,0,1,5.66-2.46,9.08,9.08,0,0,1,2.07.25l3.57-.53a5.74,5.74,0,0,1,1.74-1,6,6,0,0,1,3.05-.8h4.88a3.62,3.62,0,0,1,2.61,0,9.35,9.35,0,0,1,6.79.62l10.43,2.13-.39.41h.22s5.14,1,6.79,3.08c.46.19.94.36,1.41.51l-.67.57a10,10,0,0,1,.53,8.83l.16-.14a23.68,23.68,0,0,1,.74,3.54c.19,3.23.41,6.48.29,9.72-.23,5.75-.75,11.48-1,17.25-.11,2.37.14,4.76.14,7.14-.17,13.53-.43,27-.54,40.58,0,3.19.44,6.39.58,9.59v.26a9.59,9.59,0,0,1,5.26,0,9,9,0,0,1,2.58-.35,9.7,9.7,0,0,1,2.57.34,8.17,8.17,0,0,1,4.83-1.49c0-11.41-.41-22.81-.65-34.22-.06-2.93-.23-5.89-.3-8.84-.23-11.29-.72-22.58-.54-33.87.08-5.86,1.2-11.73,2.16-17.55.17-1,1.86-1.86,2.59-2.51-.6-1-2.13-2.26-1.94-3.23.76-3.73-.6-6.86-1.89-10.14a5.53,5.53,0,0,1,.24-3.8c4.61-10.37,10.86-19.76,17.22-29.15,6.1-9,11.49-18.42,17.47-27.45,3.44-5.16,7.57-9.86,11.33-14.71,3.26,1.51,9.6.47,11.87-1.76a2.44,2.44,0,0,0,.56-.82c1.52-5,5.67-8.22,8.27-12.51a2.83,2.83,0,0,1,1.36-1.24,7.71,7.71,0,0,1,2.76-3.49c-.11-1.49.81-2.26,3.25-2.14-.25-6,6.74-5.76,8.4-10.17l2,1.09c0-.7.09-1.44.09-2.18,0-.42-.12-1,.1-1.22,3-2.89,5.54-6.68,9.11-8.37a29.9,29.9,0,0,0,12.18-10.38,19.5,19.5,0,0,1,2.65-2.57,7,7,0,0,0,.07.8,7.23,7.23,0,0,1,1.43-.88l7.45-9.1a7.44,7.44,0,0,1,5.3-4.33,52.1,52.1,0,0,0,5.65-2.93,6.35,6.35,0,0,1,3.08-1.46c5.55-1.53,11.15-2.87,16.78-4.23a24.11,24.11,0,0,1,3.4,0c-3.85,5.06-5.09,10.52-5.59,16a10,10,0,0,1-.36,7.14c0,.88-.05,1.76-.1,2.58.48,1.94,1,3.88,1.42,5.84h0a9.25,9.25,0,0,1,1.4,2.81,7.34,7.34,0,0,1,3.67,3.55h.1l8,12.18c2.28-3.87,4.11-7.38,6.33-10.55a11.08,11.08,0,0,1,4.73-3.86c5.72-2.22,12.11-3.08,15.53-8.79l-2.43.74c-1.39-7.22-2.39-14.27-4.16-21.13a20.07,20.07,0,0,0-10.1-13.13c-6.27-3.32-13.05-3.87-20.06-2.58-5.84,1.08-11.74,1.77-17.59,2.79-1.86.32-3.71,1-6.29,1.66a49.6,49.6,0,0,1,2.5-5c3.15-4.94,6.44-9.8,9.58-14.76,2.65-4.14,3.53-4.42,8.17-2.18a8.66,8.66,0,0,0,2.16.7c10,1.65,19-1.87,27.71-6.19,4.81-2.38,9.21-5.6,13.73-8.52,3.45-2.24,6.87-4.53,10.21-6.92,2-1.47,3.72-3.44,5.84-4.72,3.67-2.22,7.56-4.07,11.19-6C448.74,755.33,444.16,754.14,439.8,752.36ZM230.08,688.27c.1-3.19,1.12-4.85,4.28-5.25,7.07-.88,11.08-5.92,14.91-11.2,1.51-1.84,2.93-3.76,4.26-5.74,1.51-2.59,2.65-5.41,4-8.16.89-1.94,1.77-3.94,2.6-5.92l1.56.36c-1,3.83-1.2,8.06-3.05,11.41A200.85,200.85,0,0,1,244.94,685a16.25,16.25,0,0,1-11.36,6.59C230.88,691.92,230,691.24,230.08,688.27Zm11.16-42.9,1-7.36,1.6.22c-.53,2.43-1.06,4.87-1.59,7.28ZM216.5,581.76c-7.34,2.12-13.63,6.34-19.14,11.31-4.73,4.26-8.41,9.72-12.61,14.57-1.89,2.25-3.89,4.42-5.92,6.6-5.9,6.29-7.56,14.31-8.54,22.37-1,8.64-.88,17.36,1.66,25.79.82,2.65,1.77,5.3,2.65,8l-1.07.59c-1.76-3-4.07-5.77-5.19-9-1.92-5.56-4.12-11.32-4.42-17.11-.77-13.47,2.79-26,12.11-36.18,3-3.32,7.22-5.58,10.8-8.45a11.72,11.72,0,0,0,3.34-3.53c3.53-6.94,6.7-14,10.23-20.93a4.38,4.38,0,0,1,3.38-2.12c10.91,1.24,22-.24,32.78,2.73,1.88.54,3.73,1,5.59,1.48h0a42.68,42.68,0,0,0-19.78-4.56c-6.77-.06-13.54-.56-20.32-.89,1.59-10,10.47-14.13,18.76-9.36,9.72,5.56,19.86,10.4,29.23,16.44,4.25,2.7,7.82,7.15,10.42,11.6a161.88,161.88,0,0,1,11.83,24.26c3.15,8.21,3.1,17,.74,25.62a11.2,11.2,0,0,1-1.32,2.14c-.6-1.77-1.29-2.93-1.35-4.14-.54-12-6.18-22.22-10.92-32.77-1-2.19-1.76-4.61-3.26-6.41-1.86-2.26-4.42-3.9-6.54-6-2.33-2.28-4.47-4.78-6.78-7.07-7.68-7.79-16.78-7.76-26.38-5Zm23.24,14.81-.41,1c-10.4-1.4-20.72-1.65-31.16,1.58.79-.88,1.43-2.18,2.44-2.65,4.9-2.43,9.82-4.89,14.93-6.82a8,8,0,0,1,6,.55c2.95,1.65,5.48,4.14,8.2,6.31Zm-23.58,63.07,4.5,3.12c-4.42,0-9.63-3.93-11.86-8.52h0a15.69,15.69,0,0,1,4,.1,4.46,4.46,0,0,1,2.65,2.26l-3.17-.66-.36.74c1.39,1,2.78,2,4.17,2.94ZM210.37,679c.68.5,1.26,1.12,2.5,2.23L204,679.42l-.18.88,21.06,4.92v4.48A26.94,26.94,0,0,1,220,689c-4.72-1.68-9.48-3.41-14.08-5.45a43.27,43.27,0,0,1-7.24-4.42c-.88-.62-1.24-1.89-2.07-2.65a15.19,15.19,0,0,0-4.3-3.06c-3.21-1.2-6.13-2.57-7.28-6.28l4.12,3.48c-7.41-8.25-10.9-17.67-9.64-28.72.64-5.51,1.12-11.14,5.72-15.4a18.63,18.63,0,0,1-.61,3.06c-3.41,9.47-1,18.37,3.7,26.5a86.66,86.66,0,0,0,11.87,15.25c2.84,3.06,6.74,5.13,10.15,7.67Zm12-168.48c11.67,2.18,23.37,4.2,34.95,6.78,2.49.56,4.78,2.94,6.73,4.9a143.27,143.27,0,0,1,12.06,13.06c4.07,5.23,7.52,10.94,11.22,16.44l-.88.81a9.3,9.3,0,0,1-2-1.15c-6-5.79-11.9-11.7-18-17.38-1.82-1.68-4.35-2.53-6.39-4-11.41-8.29-24.87-8.35-38.12-9.46-5.11-.43-10.24-.57-16-.88h0c4.48-3.24,8.63-6.34,12.95-9.23.8-.49,2.35-.11,3.5.11Zm-.29-1.1c11.21-7.33,23.57-3.29,33.63,6.67Zm42.41,200-.67-1c1.14-1.26,2.25-2.58,3.44-3.87,7-7.47,14.38-14.65,18.21-24.39,3.13-8,6.08-16,8.58-24.2,2.59-8.51,4.65-17.17,6.73-25.81,1.89-7.75,1.77-15.63,1.67-23.59-.15-8.5-3.7-15.77-7.21-23-2.17-4.41-6-8.1-9-12.12-1.6-2.08-3-4.34-4.76-6.27-2.05-2.26-3.84-4.55-7.15-5.74-2.85-1-4.87-4.27-7.35-6.44-3.05-2.65-6.19-5.21-9.3-7.81l1.65-1.77,13.87,12.42c-3.17-7-32.69-28.13-47.49-33.42,11.08.68,21,1.39,30.29,6.79a83.22,83.22,0,0,1,16.32,12.55c4.59,4.5,9.83,8.33,14.74,12.53a5.46,5.46,0,0,1,1.76,2.66c2.09,9.52,7.07,17.57,12.29,25.62a197.37,197.37,0,0,1,12,21.45,25.2,25.2,0,0,1,2.19,10.82c0,7.07-1.07,14-4.78,20.32-7,12-9.4,25.19-10.89,38.71-1.4,13.08-8.37,22.35-19.82,28.34-5,2.62-10.21,4.81-15.34,7.19Zm9.81,7.69c-5.52,4.55-11.35,8.51-18.79,9.25,4.95-5.56,12.71-5.67,18.73-9.26ZM218.64,521.49c-7.07.89-13.34,1.9-17.83,6.14-5.52,5.2-12.2,8.42-18.37,12.5-4.7,3.12-10,5.3-15,8l-.68-.81c3.38-5.72,8.57-9.79,13.93-13.45C199.64,520.76,203.17,520.83,218.64,521.49Zm-8.55,11.83c6.89-3.91,14.58-3,21.66,1.22,9.72,5.91,17.94,13.58,25.95,21.61,5.54,5.58,11.81,10.44,17.41,16,6.76,6.64,13.25,14,15.81,23.1,2,7.34,1.86,15.4,1.86,23.16,0,4.74-1.45,9.5-2.23,14.14l1.35-1c.11.58.46,1.22.3,1.72q-3.33,10.44-6.67,20.85a6,6,0,0,0-.37,1.61c-.27,9.59-6.06,17.22-9.26,25.74-2.65,7.16-8.43,11.94-13.73,17a21.21,21.21,0,0,0-3.45,3.94c-3.27,5.3-8.68,6-13.87,7.24l-.5-.74c2.58-2,5-4.36,7.77-6,7.95-4.69,11.67-12.54,15.9-20.11,1.24-2.25,2.8-4.42,3.65-6.75s.89-4.74,1.24-7.13a17,17,0,0,1,.27-2.26c2.14-7.07,4.35-14.14,6.49-21.27a17.63,17.63,0,0,0,.61-3.53,72.78,72.78,0,0,0,.62-9.64,108.6,108.6,0,0,0-1.64-15.58c-2.47-12.37-8.3-23.39-16-33.26-2.65-3.46-7.07-5.6-10.77-8.3a65.86,65.86,0,0,0-7.25-5c-5.39-2.89-11-5.46-16.27-8.34-1.23-.67-2-2.23-2.91-3.41s-1.66-3.18-3-3.87c-5-2.72-10.27-4.42-15.64-.49-2.72,2-6,3.33-8.21,5.73s-3.6,5.67-4.92,8.72c-1.14,2.65-2.65,4.36-5.63,4.49a7.8,7.8,0,0,0-2.23.83,1.69,1.69,0,0,1,.13.49l5.11-.75c-2.11,3.2-3.67,5.91-5.54,8.39-7.51,10-15.24,19.85-22.58,29.93-1.55,2.16-1.88,5.3-2.53,8a29.08,29.08,0,0,1-2.33,6.84c-1.51,3-1.12,7.18-.84,10.8.25,3.14,1.49,6.19-1.29,8.39,1.94,10.68,5.55,20.49,12,29.16l-.82.74c-.7-.44-1.68-.72-2.07-1.35-2-3.22-3.77-6.56-5.72-9.8-.79-1.3-2-2.36-2.7-3.71-3.3-6.53-7.55-12.84-9.38-19.76a61.24,61.24,0,0,1-1.84-23.1c1.06-8.17,2-16.7,6.4-24.27,4.54-7.77,7.73-16.37,12.77-23.72,3.37-4.88,8.84-8.37,13.55-12.26,4.38-3.61,9-6.85,13.5-10.37,5.94-4.71,11.27-10.39,17.75-14.1Zm21.07,171.79v-5.23c12.79,2.39,20.19-5,26.5-14.7h0C257.74,694,242.47,705.51,231.16,705.11Zm28.12-53.89V633.55C261.93,636.33,261.93,647.54,259.28,651.22Zm-27.94,68.42h14l.19.81c-4.78,2.2-8.48,6.88-14.68,6a4.35,4.35,0,0,1-.3-1.11C230.77,723.44,231.08,721.51,231.34,719.64Zm27.75,16.93c-4.41,2.34-8.61,6.08-13.95,5.15-4.67-.82-9.16-2.74-13.67-4.31a2.05,2.05,0,0,1-.8-1.84,3,3,0,0,1,2-1.18c6.77-.53,13.57-.95,20.32-1.42,1.4-.09,2.79-.28,4.2-.42v-.42l-11.67.61-.32-1c2.54-1.25,5-3.08,7.66-3.6a110.39,110.39,0,0,1,14-1.3c2.82-.14,5.66,0,9.24,0-5.89,3.41-11.38,6.76-17,9.72Zm26.74-209c4.83,7.84,10.12,15.41,14.77,23.36,7.46,12.8,14.83,25.69,21.74,38.79,2.91,5.48,4.82,11.49,7,17.35a91.05,91.05,0,0,1,3.76,12.52c1.58,7.84.63,15.62-.65,23.5-1.67,10.4-6,19.16-12.15,27.62-4.33,5.92-6.74,13.26-10.07,19.91-.88,1.82-2.13,3.53-3.05,5.3s-1.2,3.71-2.32,5.14c-3,3.85-6.05,7.87-9.72,11.12a108.94,108.94,0,0,1-15.21,11.29c-2.39,1.47-5.73,1.48-8.7,1.86a20,20,0,0,1-6.73-.46c2.75-1.62,5.56-3.18,8.23-4.92a53.45,53.45,0,0,0,4.28-3.53c1.94-1.59,3.85-3.23,5.84-4.7,8.1-6,16.65-11.69,21.35-21,2-4,2.65-8.6,4-12.87,3.24-9.83,3.53-20.37,7.15-30,2-5.3,4.85-10.19,7.26-15.29a7.71,7.71,0,0,0,.63-2.54c.65-5.9,2.08-11.86,1.63-17.67a76,76,0,0,0-4.42-20.47c-2.65-7.11-6.65-13.79-10.42-20.46-2.37-4.17-5.6-7.85-8.1-12-3.41-5.61-6.75-11.28-9.64-17.16S285.2,532,281,527.39c-1.37-1.51-2.65-3.14-4.34-5.13h0C281.68,521.67,283.83,524.26,285.83,527.53ZM184.75,508a42.24,42.24,0,0,1,15.07-6.89c5.93-1.29,11.59-4,17.22-6.48,13.4-5.78,26.1-3.37,38.55,3,8.31,4.22,14,11.48,20.69,17.61,1.94,1.76,3.65,3.79,5.94,6.18-8.14.41-10.4-5.8-14.45-9.45-.46-.44-.69-1.2-1.2-1.53-7.6-4.95-14.67-10.93-24-12.61a35.1,35.1,0,0,0-19.37,1.84c-4.25,1.69-8.23,4-12.37,6a4.77,4.77,0,0,1-2.22.55c-8.88-.46-17.21,2-25.36,5a8.84,8.84,0,0,1-1.6.37c-.3,0-.61,0-1.28-.64C181.85,509.93,183.31,509,184.75,508Zm-29.47,31.26c5.94-7.37,11.57-15,17.88-22,2.17-2.39,5.84-3.83,9.08-4.76,6.75-1.95,13.65-3.32,20.52-4.8a16.86,16.86,0,0,1,3.48,0c-5.65,6-12.75,9.13-20,11.12s-12.37,6.93-18,11.3c-4.36,3.41-8.59,6.91-13.26,10.67C155.15,540,155.09,539.51,155.28,539.25Zm-27,47.92a1.85,1.85,0,0,0-.19.27L117.48,604.9l4.49-5.12.68.17a34.07,34.07,0,0,1-.77,4.15c-2,6.19-3.15,12.37-.6,18.71a1.08,1.08,0,0,1,.07.31c.53,9.25,1,18.56,1.64,27.79.25,3.67.83,7.32,1.25,11l-.92.79c-.94-1.29-1.85-2.65-2.83-3.89a68.57,68.57,0,0,1-12-22.6c-1.09-3.7-1.24-8.5.25-12,3-7.23,2.44-14.84,4-22.16,1.21-5.67,3-11.21,4.34-16.85,1.95-8.13,8.53-12.88,13.81-18.45,5.5-5.79,11.73-10.87,17.46-16.45,4.23-4.13,8.15-8.58,12.25-12.85a23.17,23.17,0,0,1,2.54-2l.38.33c-6.45,9.86-12.21,20.32-19.59,29.4C138.27,572.28,133.63,580,128.28,587.17Zm50.18,128.4,4.56,1.35c-5.81-3.84-11.7-6.26-14.35-12.45,8,8.83,19.35,12.13,28.69,18.85-6.24-2.71-13.61-2.25-18.9-7.75ZM215,723.39a70.05,70.05,0,0,1-9.17-4.27c-2.65-1.53-5-3.64-7.59-5.19-1.66-1-3.76-1.11-5.36-2.09-5.24-3.19-10.7-6.18-15.43-10-9.18-7.48-18.07-15.33-26.78-23.36a161.15,161.15,0,0,1-14-14.88c-1.08-1.27-.57-3.86-.89-5.82-.73-4.49-1.62-9-2.28-13.45s-1.26-8.9-1.62-13.34a112,112,0,0,1-.38-11.87c.32-13.53,3-26.37,11.37-37.49,6.74-9,14.31-17.39,19.6-27.54,1.57-3,5.76-4.79,9-6.74,5.57-3.4,11.34-6.51,17.05-9.72a11.65,11.65,0,0,1,1.71-.62l.75,1c-6.66,5.57-13.47,11-19.93,16.79-4.76,4.28-9.18,9-13.66,13.65a54.2,54.2,0,0,0-6.76,8.05,47,47,0,0,0-6.07,14.69c-1.13,4.81-3.36,9.35-4.48,14.14-1.91,8.15-4.21,16.35-2.14,24.89a6.53,6.53,0,0,1,.13,2c-.5,7.07,2,13.35,4.81,19.72,2.7,6.07,6.82,11.1,10.45,16.5l1.93,2.86-.7.57-2.4-1.81-.46.45q3.18,3.2,6.39,6.4a22.79,22.79,0,0,1,2.5,2.51c5.79,7.95,12.21,15.25,20.54,20.75,5,3.31,9.55,7.27,14.09,10.79a18.86,18.86,0,0,0-.75-2.31c9.46,5.14,18.56,9.23,29.11,10,.19,2.44.37,4.67.61,7.7-3.51-1.06-6.44-1.76-9.2-2.85Zm9.39-19c-3.42-1.08-6.93-1.94-10.21-3.31-7.07-2.94-14.21-5.79-21-9.34a46.69,46.69,0,0,1-18.55-17.2,3.64,3.64,0,0,1-.38-1.24,9.58,9.58,0,0,1,.58-1.69c4,3.37,7.24,7.19,11.35,9.1,4.41,2.11,6.82,7.33,12.52,7.41,1.9,0,3.7,2.12,5.69,2.93,5.36,2.17,10.76,4.32,16.24,6.18,3.33,1.1,4.76,3.18,3.73,7.16Zm-2.17-87.15c-7-1-12,3.53-16.16,8.48-4,4.67-8,9.39-8.49,16.12-1.54-2.65-2.22-5.31-1-8,2.54-5.67,4.6-11.75,8.15-16.74a25.7,25.7,0,0,1,11.06-8.42c4.22-1.65,9.05-.68,13.12,2.36,1.66,1.26,3.92,1.77,5.93,2.59l-6.9-4.59c11.75-2.2,21.39,5.91,20.58,17.14l-2.56-2.08c1.16,2.77,2.32,5.53,3.45,8.31.14.34-.1.82-.31,2a25,25,0,0,1-3-3.32c-5.3-9.2-14.13-12.6-23.83-13.89Z" transform="translate(-97.88 -161.44)"/>
    <path class="patterns" d="M204.45,608a10.5,10.5,0,0,1,1.52-1.6l-4,.58A8.42,8.42,0,0,1,204.45,608Z" transform="translate(-97.88 -161.44)"/>
    <path class="patterns" d="M212.39,621.74h-.5a8.76,8.76,0,0,1-3.32-.53c.89,2,1.59,4.13,2.36,6.18l4.82-2.91A8.09,8.09,0,0,1,212.39,621.74Z" transform="translate(-97.88 -161.44)"/>
    <path class="patterns" d="M224.29,605.47a8.62,8.62,0,0,1,4,5,7.86,7.86,0,0,1,6-2.56l.34-.32Z" transform="translate(-97.88 -161.44)"/>
    <path class="patterns" d="M337.27,582.69l1.28-6.39.48,0c0,2.11,0,4.21-.11,6.3A8.23,8.23,0,0,1,337.27,582.69Z" transform="translate(-97.88 -161.44)"/>
  </g>
</svg>
