<svg height="512" viewBox="0 0 128 128" width="512" xmlns="http://www.w3.org/2000/svg"><path d="m128 10.941a9.941 9.941 0 0 0 -17.1-6.991l-66 68.129-6.575 6.786-8.698 8.975a17.128 17.128 0 0 0 -17.018 4.285c-3.375 3.374-7.5 10.194-10.026 16.584-2.345 5.926-4.293 13.837-.258 17.872a1.729 1.729 0 0 0 1.228.5 1.764 1.764 0 0 0 1.653-1.137c.053-.137 1.364-3.388 6.962-4.336a37.689 37.689 0 0 1 6.062-.242c5.952.048 13.369.112 18.551-5.07a17.1 17.1 0 0 0 4.276-17.009l8.982-8.7 8.847-8.57 66.061-64a9.863 9.863 0 0 0 3.053-7.076zm-79.157 75.931-6.809-6.808 6.135-6.333 7.006 7.006zm-14.536 26.95c-4.145 4.144-10.463 4.091-16.047 4.045a40.522 40.522 0 0 0 -6.676.291 13.6 13.6 0 0 0 -7.855 3.863c-.635-2.661.085-6.912 2.109-12.024 2.644-6.682 6.653-12.8 9.246-15.4a13.556 13.556 0 0 1 14.366-3.111l.057.02a13.579 13.579 0 0 1 4.8 22.316zm2.474-21.7a17.086 17.086 0 0 0 -3.713-2.807l6.53-6.74 6.731 6.73-6.747 6.536a17.021 17.021 0 0 0 -2.801-3.716zm85.739-76.631-64.831 62.809-7.084-7.084 62.814-64.835a6.44 6.44 0 1 1 9.1 9.11z"/></svg>